<?xml version="1.0" encoding="utf-8"?>
<!-- Generator: Adobe Illustrator 21.1.0, SVG Export Plug-In . SVG Version: 6.00 Build 0)  -->
<svg version="1.1" id="Layer_1" xmlns="http://www.w3.org/2000/svg" xmlns:xlink="http://www.w3.org/1999/xlink" x="0px" y="0px"
	 viewBox="0 0 3524 768" style="enable-background:new 0 0 3524 768;" xml:space="preserve">
<style type="text/css">
	.st0{fill:#D9D9D9;}
	.st1{fill:none;stroke:#D9D9D9;stroke-width:8;stroke-miterlimit:10;}
	.st2{fill:#D9D9D9;stroke:#D9D9D9;stroke-miterlimit:10;}
</style>
<g id="houses1">
	<g id="house1a">
		<g>
			<path class="st0" d="M1723.1,527.3v230.8h-76.2V527.3L1723.1,527.3 M1728.4,522h-86.7v241.4h86.7V522L1728.4,522z"/>
		</g>
		<g>
			<g>
				<path class="st0" d="M1668.1,543.3v12.6h-7.3v-12.6H1668.1 M1673.4,538h-17.9v23.2h17.9V538L1673.4,538z"/>
			</g>
			<g>
				<path class="st0" d="M1708.5,543.3v12.6h-7.3v-12.6H1708.5 M1713.8,538h-17.9v23.2h17.9V538L1713.8,538z"/>
			</g>
		</g>
		<g>
			<g>
				<path class="st0" d="M1668.1,585.7v12.6h-7.3v-12.6H1668.1 M1673.4,580.4h-17.9v23.2h17.9V580.4L1673.4,580.4z"/>
			</g>
			<g>
				<path class="st0" d="M1708.5,585.7v12.6h-7.3v-12.6H1708.5 M1713.8,580.4h-17.9v23.2h17.9V580.4L1713.8,580.4z"/>
			</g>
		</g>
		<g>
			<g>
				<path class="st0" d="M1668.1,624.2v12.6h-7.3v-12.6H1668.1 M1673.4,618.9h-17.9v23.2h17.9V618.9L1673.4,618.9z"/>
			</g>
			<g>
				<path class="st0" d="M1708.5,624.2v12.6h-7.3v-12.6H1708.5 M1713.8,618.9h-17.9v23.2h17.9V618.9L1713.8,618.9z"/>
			</g>
		</g>
		<g>
			<g>
				<path class="st0" d="M1668.1,666.6v12.6h-7.3v-12.6H1668.1 M1673.4,661.3h-17.9v23.2h17.9V661.3L1673.4,661.3z"/>
			</g>
			<g>
				<path class="st0" d="M1708.5,666.6v12.6h-7.3v-12.6H1708.5 M1713.8,661.3h-17.9v23.2h17.9V661.3L1713.8,661.3z"/>
			</g>
		</g>
		<g>
			<g>
				<path class="st0" d="M1668.1,709.1v12.6h-7.3v-12.6H1668.1 M1673.4,703.8h-17.9V727h17.9V703.8L1673.4,703.8z"/>
			</g>
			<g>
				<path class="st0" d="M1708.5,709.1v12.6h-7.3v-12.6H1708.5 M1713.8,703.8h-17.9V727h17.9V703.8L1713.8,703.8z"/>
			</g>
		</g>
	</g>
	<g id="house1b">
		<g>
			<path class="st0" d="M2329,555.2V786h-76.2V555.2L2329,555.2 M2334.3,549.9h-86.7v241.4h86.7V549.9L2334.3,549.9z"/>
		</g>
		<g>
			<g>
				<path class="st0" d="M2274,571.1v12.6h-7.3v-12.6H2274 M2279.3,565.8h-17.9V589h17.9V565.8L2279.3,565.8z"/>
			</g>
			<g>
				<path class="st0" d="M2314.4,571.1v12.6h-7.3v-12.6H2314.4 M2319.7,565.8h-17.9V589h17.9V565.8L2319.7,565.8z"/>
			</g>
		</g>
		<g>
			<g>
				<path class="st0" d="M2274,613.6v12.6h-7.3v-12.6H2274 M2279.3,608.3h-17.9v23.2h17.9V608.3L2279.3,608.3z"/>
			</g>
			<g>
				<path class="st0" d="M2314.4,613.6v12.6h-7.3v-12.6H2314.4 M2319.7,608.3h-17.9v23.2h17.9V608.3L2319.7,608.3z"/>
			</g>
		</g>
		<g>
			<g>
				<path class="st0" d="M2274,652v12.6h-7.3V652H2274 M2279.3,646.7h-17.9v23.2h17.9V646.7L2279.3,646.7z"/>
			</g>
			<g>
				<path class="st0" d="M2314.4,652v12.6h-7.3V652H2314.4 M2319.7,646.7h-17.9v23.2h17.9V646.7L2319.7,646.7z"/>
			</g>
		</g>
		<g>
			<g>
				<path class="st0" d="M2274,694.5v12.6h-7.3v-12.6H2274 M2279.3,689.2h-17.9v23.2h17.9V689.2L2279.3,689.2z"/>
			</g>
			<g>
				<path class="st0" d="M2314.4,694.5v12.6h-7.3v-12.6H2314.4 M2319.7,689.2h-17.9v23.2h17.9V689.2L2319.7,689.2z"/>
			</g>
		</g>
		<g>
			<g>
				<path class="st0" d="M2274,736.9v12.6h-7.3v-12.6H2274 M2279.3,731.6h-17.9v23.2h17.9V731.6L2279.3,731.6z"/>
			</g>
			<g>
				<path class="st0" d="M2314.4,736.9v12.6h-7.3v-12.6H2314.4 M2319.7,731.6h-17.9v23.2h17.9V731.6L2319.7,731.6z"/>
			</g>
		</g>
	</g>
	<g>
		<path class="st0" d="M2035.7,526.7v236.8h-76.2V526.7L2035.7,526.7 M2040.9,521.4h-86.7v247.4h86.7V521.4L2040.9,521.4z"/>
	</g>
	<g>
		<g>
			<path class="st0" d="M1980.7,542.6v12.6h-7.3v-12.6H1980.7 M1986,537.3h-17.9v23.2h17.9V537.3L1986,537.3z"/>
		</g>
		<g>
			<path class="st0" d="M2021.1,542.6v12.6h-7.3v-12.6H2021.1 M2026.4,537.3h-17.9v23.2h17.9V537.3L2026.4,537.3z"/>
		</g>
	</g>
	<g>
		<g>
			<path class="st0" d="M1980.7,585v12.6h-7.3V585H1980.7 M1986,579.7h-17.9v23.2h17.9V579.7L1986,579.7z"/>
		</g>
		<g>
			<path class="st0" d="M2021.1,585v12.6h-7.3V585H2021.1 M2026.4,579.7h-17.9v23.2h17.9V579.7L2026.4,579.7z"/>
		</g>
	</g>
	<g>
		<g>
			<path class="st0" d="M1980.7,624.8v12.6h-7.3v-12.6H1980.7 M1986,619.5h-17.9v23.2h17.9V619.5L1986,619.5z"/>
		</g>
		<g>
			<path class="st0" d="M2021.1,624.8v12.6h-7.3v-12.6H2021.1 M2026.4,619.5h-17.9v23.2h17.9V619.5L2026.4,619.5z"/>
		</g>
	</g>
	<g>
		<g>
			<path class="st0" d="M1980.7,666v12.6h-7.3V666H1980.7 M1986,660.6h-17.9v23.2h17.9V660.6L1986,660.6z"/>
		</g>
		<g>
			<path class="st0" d="M2021.1,666v12.6h-7.3V666H2021.1 M2026.4,660.6h-17.9v23.2h17.9V660.6L2026.4,660.6z"/>
		</g>
	</g>
	<g>
		<g>
			<path class="st0" d="M1981.4,701.8v12.6h-7.3v-12.6H1981.4 M1986.6,696.5h-17.9v23.2h17.9V696.5L1986.6,696.5z"/>
		</g>
		<g>
			<path class="st0" d="M2021.7,701.8v12.6h-7.3v-12.6H2021.7 M2027,696.5h-17.9v23.2h17.9V696.5L2027,696.5z"/>
		</g>
	</g>
	<g>
		<g>
			<path class="st0" d="M1980.7,737.6v12.6h-7.3v-12.6H1980.7 M1986,732.3h-17.9v23.2h17.9V732.3L1986,732.3z"/>
		</g>
		<g>
			<path class="st0" d="M2021.1,737.6v12.6h-7.3v-12.6H2021.1 M2026.4,732.3h-17.9v23.2h17.9V732.3L2026.4,732.3z"/>
		</g>
	</g>
</g>
<g>
	<g id="build2b">
		<line class="st1" x1="1710.5" y1="503.5" x2="1762.2" y2="503.5"/>
		<line class="st1" x1="1710.5" y1="517.4" x2="1762.2" y2="517.4"/>
		<line class="st1" x1="1728.4" y1="530" x2="1762.2" y2="530"/>
		<line class="st1" x1="1728.4" y1="543.9" x2="1762.2" y2="543.9"/>
		<g>
			<line class="st1" x1="1776.7" y1="763.4" x2="1776.7" y2="478.3"/>
			<line class="st1" x1="1698.6" y1="478.3" x2="1776.7" y2="478.3"/>
			<line class="st1" x1="1698.6" y1="526.7" x2="1698.6" y2="478.3"/>
		</g>
		<line class="st1" x1="1728.4" y1="557.8" x2="1762.2" y2="557.8"/>
		<line class="st1" x1="1728.4" y1="571.8" x2="1762.2" y2="571.8"/>
		<line class="st1" x1="1728.4" y1="585.7" x2="1762.2" y2="585.7"/>
		<line class="st1" x1="1728.4" y1="599.6" x2="1762.2" y2="599.6"/>
		<line class="st1" x1="1728.4" y1="613.6" x2="1762.2" y2="613.6"/>
		<line class="st1" x1="1728.4" y1="627.5" x2="1762.2" y2="627.5"/>
		<line class="st1" x1="1728.4" y1="641.4" x2="1762.2" y2="641.4"/>
		<line class="st1" x1="1728.4" y1="655.3" x2="1762.2" y2="655.3"/>
		<line class="st1" x1="1728.4" y1="669.3" x2="1762.2" y2="669.3"/>
		<line class="st1" x1="1728.4" y1="683.2" x2="1762.2" y2="683.2"/>
		<line class="st1" x1="1728.4" y1="697.1" x2="1762.2" y2="697.1"/>
		<line class="st1" x1="1728.4" y1="711.1" x2="1762.2" y2="711.1"/>
		<line class="st1" x1="1728.4" y1="725" x2="1762.2" y2="725"/>
		<line class="st1" x1="1726.4" y1="736.3" x2="1760.2" y2="736.3"/>
		<line class="st1" x1="1727.1" y1="750.2" x2="1760.8" y2="750.2"/>
	</g>
	<g id="build2a">
		<line class="st1" x1="2313.8" y1="500.8" x2="2365.4" y2="500.8"/>
		<line class="st1" x1="2313.8" y1="514.7" x2="2365.4" y2="514.7"/>
		<line class="st1" x1="2313.8" y1="527.3" x2="2365.4" y2="527.3"/>
		<line class="st1" x1="2313.8" y1="541.3" x2="2365.4" y2="541.3"/>
		<line class="st1" x1="2380" y1="760.8" x2="2380" y2="475.6"/>
		<line class="st1" x1="2301.9" y1="475.6" x2="2380" y2="475.6"/>
		<line class="st1" x1="2301.9" y1="555.2" x2="2301.9" y2="475.6"/>
		<line class="st1" x1="2331.7" y1="555.2" x2="2365.4" y2="555.2"/>
		<line class="st1" x1="2331.7" y1="569.1" x2="2365.4" y2="569.1"/>
		<line class="st1" x1="2331.7" y1="583.1" x2="2365.4" y2="583.1"/>
		<line class="st1" x1="2331.7" y1="597" x2="2365.4" y2="597"/>
		<line class="st1" x1="2331.7" y1="610.9" x2="2365.4" y2="610.9"/>
		<line class="st1" x1="2331.7" y1="624.8" x2="2365.4" y2="624.8"/>
		<line class="st1" x1="2331.7" y1="638.8" x2="2365.4" y2="638.8"/>
		<line class="st1" x1="2331.7" y1="652.7" x2="2365.4" y2="652.7"/>
		<line class="st1" x1="2331.7" y1="666.6" x2="2365.4" y2="666.6"/>
		<line class="st1" x1="2331.7" y1="680.5" x2="2365.4" y2="680.5"/>
		<line class="st1" x1="2331.7" y1="694.5" x2="2365.4" y2="694.5"/>
		<line class="st1" x1="2331.7" y1="708.4" x2="2365.4" y2="708.4"/>
		<line class="st1" x1="2331.7" y1="722.3" x2="2365.4" y2="722.3"/>
		<line class="st1" x1="2329.7" y1="733.6" x2="2363.4" y2="733.6"/>
		<line class="st1" x1="2330.3" y1="747.5" x2="2364.1" y2="747.5"/>
	</g>
	<g id="build2c">
		<rect x="2174.7" y="672.6" class="st1" width="76.2" height="86.2"/>
		<line class="st1" x1="2189.9" y1="683.9" x2="2190.6" y2="754.8"/>
		<line class="st1" x1="2205.2" y1="694.5" x2="2250.9" y2="694.5"/>
		<line class="st1" x1="2205.2" y1="711.1" x2="2250.9" y2="711.1"/>
		<line class="st1" x1="2205.2" y1="727" x2="2250.9" y2="726.3"/>
		<line class="st1" x1="2205.8" y1="742.2" x2="2251.5" y2="742.2"/>
		<line class="st1" x1="2205.8" y1="758.8" x2="2251.5" y2="758.8"/>
	</g>
	<g id="build2d">
		<rect x="1874.7" y="591.7" class="st1" width="84.1" height="167.1"/>
		<line class="st1" x1="1888" y1="602.9" x2="1889.3" y2="758.8"/>
		<line class="st1" x1="1902.5" y1="602.9" x2="1903.9" y2="758.8"/>
		<line class="st1" x1="1916.5" y1="602.9" x2="1917.8" y2="758.8"/>
		<line class="st1" x1="1931" y1="602.9" x2="1932.3" y2="758.8"/>
		<line class="st1" x1="1943.6" y1="602.3" x2="1944.9" y2="758.1"/>
		<line class="st1" x1="1958.2" y1="602.3" x2="1959.5" y2="758.1"/>
	</g>
	<g>
		<g>
			<line class="st1" x1="1913.1" y1="589.7" x2="1913.1" y2="390.1"/>
			<rect x="1825.1" y="337" class="st2" width="74.2" height="55"/>
			<line class="st1" x1="1808.5" y1="392" x2="1913.1" y2="392"/>
			<line class="st1" x1="1811.8" y1="392" x2="1813.8" y2="782"/>
			<line class="st1" x1="1825.1" y1="404" x2="1825.1" y2="760.8"/>
			<line class="st1" x1="1837" y1="404" x2="1903.2" y2="404"/>
			<line class="st1" x1="1837" y1="419.2" x2="1903.2" y2="419.2"/>
			<line class="st1" x1="1837" y1="434.5" x2="1903.2" y2="434.5"/>
			<line class="st1" x1="1837" y1="449.7" x2="1903.2" y2="449.7"/>
			<line class="st1" x1="1837" y1="465" x2="1903.2" y2="465"/>
			<line class="st1" x1="1837" y1="480.3" x2="1903.2" y2="480.3"/>
			<line class="st1" x1="1837" y1="495.5" x2="1903.2" y2="495.5"/>
			<line class="st1" x1="1837" y1="510.8" x2="1903.2" y2="510.8"/>
			<line class="st1" x1="1837" y1="526" x2="1903.2" y2="526"/>
			<line class="st1" x1="1837" y1="541.3" x2="1903.2" y2="541.3"/>
			<line class="st1" x1="1837" y1="556.5" x2="1903.2" y2="556.5"/>
			<line class="st1" x1="1837" y1="571.8" x2="1903.2" y2="571.8"/>
		</g>
		<line class="st1" x1="1837" y1="587" x2="1903.2" y2="587"/>
		<line class="st1" x1="1838.3" y1="602.9" x2="1874.7" y2="602.9"/>
		<line class="st1" x1="1838.3" y1="618.2" x2="1874.7" y2="618.2"/>
		<line class="st1" x1="1838.3" y1="633.5" x2="1874.7" y2="633.5"/>
		<line class="st1" x1="1838.3" y1="648.7" x2="1874.7" y2="648.7"/>
		<line class="st1" x1="1838.3" y1="664" x2="1874.7" y2="664"/>
		<line class="st1" x1="1838.3" y1="679.2" x2="1875.4" y2="679.2"/>
		<line class="st1" x1="1838.3" y1="694.5" x2="1874.7" y2="694.5"/>
		<line class="st1" x1="1838.3" y1="709.7" x2="1875.4" y2="709.7"/>
		<line class="st1" x1="1838.3" y1="725" x2="1872.7" y2="725"/>
		<line class="st1" x1="1838.3" y1="740.2" x2="1872.7" y2="740.2"/>
		<line class="st1" x1="1838.3" y1="755.5" x2="1874.7" y2="755.5"/>
		<line class="st1" x1="1838.3" y1="770.7" x2="1904.5" y2="770.7"/>
	</g>
	<g id="build2f">
		<rect x="2135" y="466.3" class="st1" width="53" height="10.6"/>
		<rect x="2135" y="489.5" class="st1" width="53" height="10.6"/>
		<rect x="2135" y="512.8" class="st1" width="53" height="10.6"/>
		<rect x="2135" y="536" class="st1" width="53" height="10.6"/>
		<rect x="2135.6" y="559.2" class="st1" width="53" height="10.6"/>
		<rect x="2135.6" y="582.4" class="st1" width="53" height="10.6"/>
		<rect x="2135.6" y="605.6" class="st1" width="53" height="10.6"/>
		<rect x="2135.6" y="628.8" class="st1" width="53" height="10.6"/>
		<g>
			<polygon class="st1" points="2161.5,391.4 2127,453.5 2195.9,453.5 			"/>
			<line class="st1" x1="2127" y1="453.7" x2="2127" y2="763.4"/>
			<line class="st1" x1="2196.6" y1="453.7" x2="2196.6" y2="671.9"/>
		</g>
		<rect x="2135.6" y="650.7" class="st1" width="53" height="10.6"/>
		<rect x="2135.6" y="672.6" class="st1" width="37.7" height="10.6"/>
		<rect x="2135.6" y="694.5" class="st1" width="38.4" height="10.6"/>
		<rect x="2136.3" y="715" class="st1" width="37.7" height="10.6"/>
		<rect x="2136.3" y="736.9" class="st1" width="38.4" height="10.6"/>
	</g>
	<g id="build2g">
		<rect x="2073.4" y="613.6" class="st1" width="53.6" height="157.2"/>
		<rect x="2082.7" y="625.5" class="st1" width="7.9" height="8"/>
		<rect x="2097.9" y="625.5" class="st1" width="8.6" height="8.6"/>
		<rect x="2113.8" y="625.5" class="st1" width="8.6" height="8.6"/>
		<rect x="2082.7" y="642.1" class="st1" width="7.9" height="8"/>
		<rect x="2097.9" y="642.1" class="st1" width="8.6" height="8.6"/>
		<rect x="2113.8" y="642.1" class="st1" width="8.6" height="8.6"/>
		<rect x="2082.7" y="658.7" class="st1" width="7.9" height="8"/>
		<rect x="2097.9" y="658.7" class="st1" width="8.6" height="8.6"/>
		<rect x="2113.8" y="658.7" class="st1" width="8.6" height="8.6"/>
		<rect x="2082.7" y="675.2" class="st1" width="7.9" height="8"/>
		<rect x="2097.9" y="675.2" class="st1" width="8.6" height="8.6"/>
		<rect x="2113.8" y="675.2" class="st1" width="8.6" height="8.6"/>
		<rect x="2082.7" y="691.8" class="st1" width="7.9" height="8"/>
		<rect x="2097.9" y="691.8" class="st1" width="8.6" height="8.6"/>
		<rect x="2113.8" y="691.8" class="st1" width="8.6" height="8.6"/>
		<rect x="2082.7" y="708.4" class="st1" width="7.9" height="8"/>
		<rect x="2097.9" y="708.4" class="st1" width="8.6" height="8.6"/>
		<rect x="2113.8" y="708.4" class="st1" width="8.6" height="8.6"/>
		<rect x="2082.7" y="725" class="st1" width="7.9" height="8"/>
		<rect x="2097.9" y="725" class="st1" width="8.6" height="8.6"/>
		<rect x="2113.8" y="725" class="st1" width="8.6" height="8.6"/>
		<rect x="2082.7" y="741.6" class="st1" width="7.9" height="8"/>
		<rect x="2097.9" y="741.6" class="st1" width="8.6" height="8.6"/>
		<rect x="2113.8" y="741.6" class="st1" width="8.6" height="8.6"/>
	</g>
	<g id="build2h">
		<rect x="1588" y="613.6" class="st1" width="53.6" height="157.2"/>
		<rect x="1597.3" y="625.5" class="st1" width="7.9" height="8"/>
		<rect x="1612.5" y="625.5" class="st1" width="8.6" height="8.6"/>
		<rect x="1628.4" y="625.5" class="st1" width="8.6" height="8.6"/>
		<rect x="1597.3" y="642.1" class="st1" width="7.9" height="8"/>
		<rect x="1612.5" y="642.1" class="st1" width="8.6" height="8.6"/>
		<rect x="1628.4" y="642.1" class="st1" width="8.6" height="8.6"/>
		<rect x="1597.3" y="658.7" class="st1" width="7.9" height="8"/>
		<rect x="1612.5" y="658.7" class="st1" width="8.6" height="8.6"/>
		<rect x="1628.4" y="658.7" class="st1" width="8.6" height="8.6"/>
		<rect x="1597.3" y="675.2" class="st1" width="7.9" height="8"/>
		<rect x="1612.5" y="675.2" class="st1" width="8.6" height="8.6"/>
		<rect x="1628.4" y="675.2" class="st1" width="8.6" height="8.6"/>
		<rect x="1597.3" y="691.8" class="st1" width="7.9" height="8"/>
		<rect x="1612.5" y="691.8" class="st1" width="8.6" height="8.6"/>
		<rect x="1628.4" y="691.8" class="st1" width="8.6" height="8.6"/>
		<rect x="1597.3" y="708.4" class="st1" width="7.9" height="8"/>
		<rect x="1612.5" y="708.4" class="st1" width="8.6" height="8.6"/>
		<rect x="1628.4" y="708.4" class="st1" width="8.6" height="8.6"/>
		<rect x="1597.3" y="725" class="st1" width="7.9" height="8"/>
		<rect x="1612.5" y="725" class="st1" width="8.6" height="8.6"/>
		<rect x="1628.4" y="725" class="st1" width="8.6" height="8.6"/>
		<rect x="1597.3" y="741.6" class="st1" width="7.9" height="8"/>
		<rect x="1612.5" y="741.6" class="st1" width="8.6" height="8.6"/>
		<rect x="1628.4" y="741.6" class="st1" width="8.6" height="8.6"/>
	</g>
</g>
<g id="background">
	<rect x="2194.6" y="626.8" class="st0" width="33.8" height="45.1"/>
	<rect x="2211.1" y="583.1" class="st0" width="39.7" height="89.5"/>
	<rect x="2218.4" y="565.8" class="st0" width="6" height="21.2"/>
	<rect x="2231" y="564.5" class="st0" width="6" height="21.2"/>
	<rect x="2037.6" y="534" class="st0" width="35.8" height="229.5"/>
	<rect x="2068.8" y="575.1" class="st0" width="33.1" height="38.5"/>
	<rect x="2111.8" y="563.2" class="st0" width="15.2" height="47.8"/>
	<rect x="2090.6" y="569.1" class="st0" width="7.9" height="8"/>
	<rect x="2078.7" y="559.2" class="st0" width="2" height="17.9"/>
	<rect x="1913.1" y="500.2" class="st0" width="43" height="90.9"/>
	<rect x="1946.3" y="447.1" class="st0" width="56.9" height="76.3"/>
	<polygon class="st0" points="1913,500.3 1933.6,475.3 1954.2,500.3 	"/>
	<rect x="1776.7" y="599.6" class="st0" width="35.8" height="171.1"/>
	<rect x="1601.2" y="572" class="st0" width="40.4" height="38.2"/>
	<rect x="1648.9" y="505.6" class="st0" width="48.3" height="20.4"/>
	<path class="st0" d="M1970.4,397.3l-23.5,49.4c-1.5,3.2,0.8,7,4.4,7h47c3.6,0,6-3.8,4.4-7l-23.4-49.4
		C1977.5,393.6,1972.2,393.6,1970.4,397.3z"/>
	<g>
		<path class="st0" d="M1975.1,347.6c0.5,5.5,0.8,11.1,1.2,16.6l0.5,8.3l0.4,8.3c0.1,2.8,0.4,5.5,0.6,8.3c0.2,2.8,0.2,5.5,0,8.3
			c-0.2,2.8-0.5,5.5-0.9,8.3c-0.4,2.8-0.9,5.5-1.8,8.3h-0.6c-0.9-2.8-1.4-5.5-1.8-8.3c-0.4-2.8-0.7-5.5-0.9-8.3
			c-0.2-2.8-0.1-5.5,0-8.3c0.2-2.8,0.5-5.5,0.6-8.3l0.4-8.3l0.5-8.3c0.4-5.5,0.7-11.1,1.2-16.6H1975.1z"/>
	</g>
	<rect x="1608.7" y="565.1" class="st0" width="6.4" height="6.9"/>
	<rect x="1648.9" y="493.5" class="st0" width="47.2" height="13.6"/>
</g>
<g id="houses1_1_">
	<g id="house1a_1_">
		<g>
			<path class="st0" d="M3269.8,493.9v283.6h94.8V493.9L3269.8,493.9 M3263.2,487.4h108v296.7h-108V487.4L3263.2,487.4z"/>
		</g>
		<g>
			<g>
				<path class="st0" d="M3338.2,513.5V529h9.1v-15.5H3338.2 M3331.7,507h22.3v28.5h-22.3V507L3331.7,507z"/>
			</g>
			<g>
				<path class="st0" d="M3288,513.5V529h9.1v-15.5H3288 M3281.4,507h22.3v28.5h-22.3V507L3281.4,507z"/>
			</g>
		</g>
		<g>
			<g>
				<path class="st0" d="M3338.2,565.6v15.5h9.1v-15.5H3338.2 M3331.7,559.1h22.3v28.5h-22.3V559.1L3331.7,559.1z"/>
			</g>
			<g>
				<path class="st0" d="M3288,565.6v15.5h9.1v-15.5H3288 M3281.4,559.1h22.3v28.5h-22.3V559.1L3281.4,559.1z"/>
			</g>
		</g>
		<g>
			<g>
				<path class="st0" d="M3338.2,612.9v15.5h9.1v-15.5H3338.2 M3331.7,606.4h22.3v28.5h-22.3V606.4L3331.7,606.4z"/>
			</g>
			<g>
				<path class="st0" d="M3288,612.9v15.5h9.1v-15.5H3288 M3281.4,606.4h22.3v28.5h-22.3V606.4L3281.4,606.4z"/>
			</g>
		</g>
		<g>
			<g>
				<path class="st0" d="M3338.2,665.1v15.5h9.1v-15.5H3338.2 M3331.7,658.6h22.3v28.5h-22.3V658.6L3331.7,658.6z"/>
			</g>
			<g>
				<path class="st0" d="M3288,665.1v15.5h9.1v-15.5H3288 M3281.4,658.6h22.3v28.5h-22.3V658.6L3281.4,658.6z"/>
			</g>
		</g>
		<g>
			<g>
				<path class="st0" d="M3338.2,717.2v15.5h9.1v-15.5H3338.2 M3331.7,710.7h22.3v28.5h-22.3V710.7L3331.7,710.7z"/>
			</g>
			<g>
				<path class="st0" d="M3288,717.2v15.5h9.1v-15.5H3288 M3281.4,710.7h22.3v28.5h-22.3V710.7L3281.4,710.7z"/>
			</g>
		</g>
	</g>
	<g id="house1b_1_">
		<g>
			<path class="st0" d="M2515.5,528.1v283.6h94.8V528.1H2515.5 M2508.9,521.6h108v296.7h-108V521.6L2508.9,521.6z"/>
		</g>
		<g>
			<g>
				<path class="st0" d="M2583.9,547.7v15.5h9.1v-15.5H2583.9 M2577.3,541.2h22.3v28.5h-22.3V541.2L2577.3,541.2z"/>
			</g>
			<g>
				<path class="st0" d="M2533.6,547.7v15.5h9.1v-15.5H2533.6 M2527,541.2h22.3v28.5H2527V541.2L2527,541.2z"/>
			</g>
		</g>
		<g>
			<g>
				<path class="st0" d="M2583.9,599.9v15.5h9.1v-15.5H2583.9 M2577.3,593.3h22.3v28.5h-22.3V593.3L2577.3,593.3z"/>
			</g>
			<g>
				<path class="st0" d="M2533.6,599.9v15.5h9.1v-15.5H2533.6 M2527,593.3h22.3v28.5H2527V593.3L2527,593.3z"/>
			</g>
		</g>
		<g>
			<g>
				<path class="st0" d="M2583.9,647.1v15.5h9.1v-15.5H2583.9 M2577.3,640.6h22.3v28.5h-22.3V640.6L2577.3,640.6z"/>
			</g>
			<g>
				<path class="st0" d="M2533.6,647.1v15.5h9.1v-15.5H2533.6 M2527,640.6h22.3v28.5H2527V640.6L2527,640.6z"/>
			</g>
		</g>
		<g>
			<g>
				<path class="st0" d="M2583.9,699.3v15.5h9.1v-15.5H2583.9 M2577.3,692.8h22.3v28.5h-22.3V692.8L2577.3,692.8z"/>
			</g>
			<g>
				<path class="st0" d="M2533.6,699.3v15.5h9.1v-15.5H2533.6 M2527,692.8h22.3v28.5H2527V692.8L2527,692.8z"/>
			</g>
		</g>
		<g>
			<g>
				<path class="st0" d="M2583.9,751.5V767h9.1v-15.5H2583.9 M2577.3,744.9h22.3v28.5h-22.3V744.9L2577.3,744.9z"/>
			</g>
			<g>
				<path class="st0" d="M2533.6,751.5V767h9.1v-15.5H2533.6 M2527,744.9h22.3v28.5H2527V744.9L2527,744.9z"/>
			</g>
		</g>
	</g>
	<g>
		<path class="st0" d="M2880.7,493.1v291h94.8v-291L2880.7,493.1 M2874.1,486.6h108v304h-108V486.6L2874.1,486.6z"/>
	</g>
	<g>
		<g>
			<path class="st0" d="M2949.1,512.7v15.5h9.1v-15.5H2949.1 M2942.5,506.1h22.3v28.5h-22.3V506.1L2942.5,506.1z"/>
		</g>
		<g>
			<path class="st0" d="M2898.8,512.7v15.5h9.1v-15.5H2898.8 M2892.2,506.1h22.3v28.5h-22.3V506.1L2892.2,506.1z"/>
		</g>
	</g>
	<g>
		<g>
			<path class="st0" d="M2949.1,564.8v15.5h9.1v-15.5H2949.1 M2942.5,558.3h22.3v28.5h-22.3V558.3L2942.5,558.3z"/>
		</g>
		<g>
			<path class="st0" d="M2898.8,564.8v15.5h9.1v-15.5H2898.8 M2892.2,558.3h22.3v28.5h-22.3V558.3L2892.2,558.3z"/>
		</g>
	</g>
	<g>
		<g>
			<path class="st0" d="M2949.1,613.7v15.5h9.1v-15.5H2949.1 M2942.5,607.2h22.3v28.5h-22.3V607.2L2942.5,607.2z"/>
		</g>
		<g>
			<path class="st0" d="M2898.8,613.7v15.5h9.1v-15.5H2898.8 M2892.2,607.2h22.3v28.5h-22.3V607.2L2892.2,607.2z"/>
		</g>
	</g>
	<g>
		<g>
			<path class="st0" d="M2949.1,664.3v15.5h9.1v-15.5H2949.1 M2942.5,657.7h22.3v28.5h-22.3V657.7L2942.5,657.7z"/>
		</g>
		<g>
			<path class="st0" d="M2898.8,664.3v15.5h9.1v-15.5H2898.8 M2892.2,657.7h22.3v28.5h-22.3V657.7L2892.2,657.7z"/>
		</g>
	</g>
	<g>
		<g>
			<path class="st0" d="M2948.3,708.3v15.5h9.1v-15.5H2948.3 M2941.7,701.7h22.3v28.5h-22.3V701.7L2941.7,701.7z"/>
		</g>
		<g>
			<path class="st0" d="M2898,708.3v15.5h9.1v-15.5H2898 M2891.4,701.7h22.3v28.5h-22.3V701.7L2891.4,701.7z"/>
		</g>
	</g>
	<g>
		<g>
			<path class="st0" d="M2949.1,752.3v15.5h9.1v-15.5H2949.1 M2942.5,745.8h22.3v28.5h-22.3V745.8L2942.5,745.8z"/>
		</g>
		<g>
			<path class="st0" d="M2898.8,752.3v15.5h9.1v-15.5H2898.8 M2892.2,745.8h22.3v28.5h-22.3V745.8L2892.2,745.8z"/>
		</g>
	</g>
</g>
<g>
	<g id="build2b_1_">
		<line class="st1" x1="3285.5" y1="464.6" x2="3221.2" y2="464.6"/>
		<line class="st1" x1="3285.5" y1="481.7" x2="3221.2" y2="481.7"/>
		<line class="st1" x1="3263.2" y1="497.2" x2="3221.2" y2="497.2"/>
		<line class="st1" x1="3263.2" y1="514.3" x2="3221.2" y2="514.3"/>
		<g>
			<line class="st1" x1="3203" y1="784.1" x2="3203" y2="433.6"/>
			<line class="st1" x1="3300.3" y1="433.6" x2="3203" y2="433.6"/>
			<line class="st1" x1="3300.3" y1="493.1" x2="3300.3" y2="433.6"/>
		</g>
		<line class="st1" x1="3263.2" y1="531.4" x2="3221.2" y2="531.4"/>
		<line class="st1" x1="3263.2" y1="548.5" x2="3221.2" y2="548.5"/>
		<line class="st1" x1="3263.2" y1="565.6" x2="3221.2" y2="565.6"/>
		<line class="st1" x1="3263.2" y1="582.8" x2="3221.2" y2="582.8"/>
		<line class="st1" x1="3263.2" y1="599.9" x2="3221.2" y2="599.9"/>
		<line class="st1" x1="3263.2" y1="617" x2="3221.2" y2="617"/>
		<line class="st1" x1="3263.2" y1="634.1" x2="3221.2" y2="634.1"/>
		<line class="st1" x1="3263.2" y1="651.2" x2="3221.2" y2="651.2"/>
		<line class="st1" x1="3263.2" y1="668.3" x2="3221.2" y2="668.3"/>
		<line class="st1" x1="3263.2" y1="685.4" x2="3221.2" y2="685.4"/>
		<line class="st1" x1="3263.2" y1="702.6" x2="3221.2" y2="702.6"/>
		<line class="st1" x1="3263.2" y1="719.7" x2="3221.2" y2="719.7"/>
		<line class="st1" x1="3263.2" y1="736.8" x2="3221.2" y2="736.8"/>
		<line class="st1" x1="3265.7" y1="750.7" x2="3223.7" y2="750.7"/>
		<line class="st1" x1="3264.9" y1="767.8" x2="3222.8" y2="767.8"/>
	</g>
	<g id="build2a_1_">
		<line class="st1" x1="2534.4" y1="461.3" x2="2470.1" y2="461.3"/>
		<line class="st1" x1="2534.4" y1="478.4" x2="2470.1" y2="478.4"/>
		<line class="st1" x1="2534.4" y1="493.9" x2="2470.1" y2="493.9"/>
		<line class="st1" x1="2534.4" y1="511" x2="2470.1" y2="511"/>
		<line class="st1" x1="2452" y1="780.8" x2="2452" y2="430.3"/>
		<line class="st1" x1="2549.3" y1="430.3" x2="2452" y2="430.3"/>
		<line class="st1" x1="2549.3" y1="528.1" x2="2549.3" y2="430.3"/>
		<line class="st1" x1="2512.2" y1="528.1" x2="2470.1" y2="528.1"/>
		<line class="st1" x1="2512.2" y1="545.3" x2="2470.1" y2="545.3"/>
		<line class="st1" x1="2512.2" y1="562.4" x2="2470.1" y2="562.4"/>
		<line class="st1" x1="2512.2" y1="579.5" x2="2470.1" y2="579.5"/>
		<line class="st1" x1="2512.2" y1="596.6" x2="2470.1" y2="596.6"/>
		<line class="st1" x1="2512.2" y1="613.7" x2="2470.1" y2="613.7"/>
		<line class="st1" x1="2512.2" y1="630.8" x2="2470.1" y2="630.8"/>
		<line class="st1" x1="2512.2" y1="648" x2="2470.1" y2="648"/>
		<line class="st1" x1="2512.2" y1="665.1" x2="2470.1" y2="665.1"/>
		<line class="st1" x1="2512.2" y1="682.2" x2="2470.1" y2="682.2"/>
		<line class="st1" x1="2512.2" y1="699.3" x2="2470.1" y2="699.3"/>
		<line class="st1" x1="2512.2" y1="716.4" x2="2470.1" y2="716.4"/>
		<line class="st1" x1="2512.2" y1="733.5" x2="2470.1" y2="733.5"/>
		<line class="st1" x1="2514.7" y1="747.4" x2="2472.6" y2="747.4"/>
		<line class="st1" x1="2513.8" y1="764.5" x2="2471.8" y2="764.5"/>
	</g>
	<g id="build2c_1_">
		<rect x="2612.8" y="672.4" class="st1" width="94.8" height="106"/>
		<line class="st1" x1="2688.6" y1="686.3" x2="2687.8" y2="773.5"/>
		<line class="st1" x1="2669.6" y1="699.3" x2="2612.8" y2="699.3"/>
		<line class="st1" x1="2669.6" y1="719.7" x2="2612.8" y2="719.7"/>
		<line class="st1" x1="2669.6" y1="739.2" x2="2612.8" y2="738.4"/>
		<line class="st1" x1="2668.8" y1="758" x2="2611.9" y2="758"/>
		<line class="st1" x1="2668.8" y1="778.4" x2="2611.9" y2="778.4"/>
	</g>
	<g id="build2d_1_">
		<rect x="2976.3" y="573" class="st1" width="104.7" height="205.4"/>
		<line class="st1" x1="3064.5" y1="586.8" x2="3062.9" y2="778.4"/>
		<line class="st1" x1="3046.4" y1="586.8" x2="3044.8" y2="778.4"/>
		<line class="st1" x1="3029.1" y1="586.8" x2="3027.4" y2="778.4"/>
		<line class="st1" x1="3011" y1="586.8" x2="3009.3" y2="778.4"/>
		<line class="st1" x1="2995.3" y1="586" x2="2993.6" y2="777.5"/>
		<line class="st1" x1="2977.2" y1="586" x2="2975.5" y2="777.5"/>
	</g>
	<g>
		<g>
			<line class="st1" x1="3033.2" y1="570.5" x2="3033.2" y2="325.2"/>
			<rect x="3050.5" y="260" class="st2" width="92.3" height="67.6"/>
			<line class="st1" x1="3163.5" y1="327.6" x2="3033.2" y2="327.6"/>
			<line class="st1" x1="3159.3" y1="327.6" x2="3156.9" y2="806.9"/>
			<line class="st1" x1="3142.9" y1="342.3" x2="3142.9" y2="780.8"/>
			<line class="st1" x1="3128" y1="342.3" x2="3045.6" y2="342.3"/>
			<line class="st1" x1="3128" y1="361.1" x2="3045.6" y2="361.1"/>
			<line class="st1" x1="3128" y1="379.8" x2="3045.6" y2="379.8"/>
			<line class="st1" x1="3128" y1="398.6" x2="3045.6" y2="398.6"/>
			<line class="st1" x1="3128" y1="417.3" x2="3045.6" y2="417.3"/>
			<line class="st1" x1="3128" y1="436" x2="3045.6" y2="436"/>
			<line class="st1" x1="3128" y1="454.8" x2="3045.6" y2="454.8"/>
			<line class="st1" x1="3128" y1="473.5" x2="3045.6" y2="473.5"/>
			<line class="st1" x1="3128" y1="492.3" x2="3045.6" y2="492.3"/>
			<line class="st1" x1="3128" y1="511" x2="3045.6" y2="511"/>
			<line class="st1" x1="3128" y1="529.8" x2="3045.6" y2="529.8"/>
			<line class="st1" x1="3128" y1="548.5" x2="3045.6" y2="548.5"/>
		</g>
		<line class="st1" x1="3128" y1="567.3" x2="3045.6" y2="567.3"/>
		<line class="st1" x1="3126.4" y1="586.8" x2="3081" y2="586.8"/>
		<line class="st1" x1="3126.4" y1="605.6" x2="3081" y2="605.6"/>
		<line class="st1" x1="3126.4" y1="624.3" x2="3081" y2="624.3"/>
		<line class="st1" x1="3126.4" y1="643.1" x2="3081" y2="643.1"/>
		<line class="st1" x1="3126.4" y1="661.8" x2="3081" y2="661.8"/>
		<line class="st1" x1="3126.4" y1="680.6" x2="3080.2" y2="680.6"/>
		<line class="st1" x1="3126.4" y1="699.3" x2="3081" y2="699.3"/>
		<line class="st1" x1="3126.4" y1="718.1" x2="3080.2" y2="718.1"/>
		<line class="st1" x1="3126.4" y1="736.8" x2="3083.5" y2="736.8"/>
		<line class="st1" x1="3126.4" y1="755.5" x2="3083.5" y2="755.5"/>
		<line class="st1" x1="3126.4" y1="774.3" x2="3081" y2="774.3"/>
		<line class="st1" x1="3126.4" y1="793" x2="3043.9" y2="793"/>
	</g>
	<g id="build2f_1_">
		<rect x="2691.1" y="418.9" class="st1" width="66" height="13"/>
		<rect x="2691.1" y="447.5" class="st1" width="66" height="13"/>
		<rect x="2691.1" y="476" class="st1" width="66" height="13"/>
		<rect x="2691.1" y="504.5" class="st1" width="66" height="13"/>
		<rect x="2690.3" y="533" class="st1" width="66" height="13"/>
		<rect x="2690.3" y="561.6" class="st1" width="66" height="13"/>
		<rect x="2690.3" y="590.1" class="st1" width="66" height="13"/>
		<rect x="2690.3" y="618.6" class="st1" width="66" height="13"/>
		<g>
			<polygon class="st1" points="2724.1,326.8 2766.9,403.1 2681.2,403.1 			"/>
			<line class="st1" x1="2766.9" y1="403.4" x2="2766.9" y2="784.1"/>
			<line class="st1" x1="2680.4" y1="403.4" x2="2680.4" y2="671.6"/>
		</g>
		<rect x="2690.3" y="645.5" class="st1" width="66" height="13"/>
		<rect x="2709.2" y="672.4" class="st1" width="47" height="13"/>
		<rect x="2708.4" y="699.3" class="st1" width="47.8" height="13"/>
		<rect x="2708.4" y="724.6" class="st1" width="47" height="13"/>
		<rect x="2707.6" y="751.5" class="st1" width="47.8" height="13"/>
	</g>
	<g id="build2g_1_">
		<rect x="2766.9" y="599.9" class="st1" width="66.8" height="193.2"/>
		<rect x="2812.3" y="614.5" class="st1" width="9.9" height="9.8"/>
		<rect x="2792.5" y="614.5" class="st1" width="10.7" height="10.6"/>
		<rect x="2772.7" y="614.5" class="st1" width="10.7" height="10.6"/>
		<rect x="2812.3" y="634.9" class="st1" width="9.9" height="9.8"/>
		<rect x="2792.5" y="634.9" class="st1" width="10.7" height="10.6"/>
		<rect x="2772.7" y="634.9" class="st1" width="10.7" height="10.6"/>
		<rect x="2812.3" y="655.3" class="st1" width="9.9" height="9.8"/>
		<rect x="2792.5" y="655.3" class="st1" width="10.7" height="10.6"/>
		<rect x="2772.7" y="655.3" class="st1" width="10.7" height="10.6"/>
		<rect x="2812.3" y="675.7" class="st1" width="9.9" height="9.8"/>
		<rect x="2792.5" y="675.7" class="st1" width="10.7" height="10.6"/>
		<rect x="2772.7" y="675.7" class="st1" width="10.7" height="10.6"/>
		<rect x="2812.3" y="696" class="st1" width="9.9" height="9.8"/>
		<rect x="2792.5" y="696" class="st1" width="10.7" height="10.6"/>
		<rect x="2772.7" y="696" class="st1" width="10.7" height="10.6"/>
		<rect x="2812.3" y="716.4" class="st1" width="9.9" height="9.8"/>
		<rect x="2792.5" y="716.4" class="st1" width="10.7" height="10.6"/>
		<rect x="2772.7" y="716.4" class="st1" width="10.7" height="10.6"/>
		<rect x="2812.3" y="736.8" class="st1" width="9.9" height="9.8"/>
		<rect x="2792.5" y="736.8" class="st1" width="10.7" height="10.6"/>
		<rect x="2772.7" y="736.8" class="st1" width="10.7" height="10.6"/>
		<rect x="2812.3" y="757.2" class="st1" width="9.9" height="9.8"/>
		<rect x="2792.5" y="757.2" class="st1" width="10.7" height="10.6"/>
		<rect x="2772.7" y="757.2" class="st1" width="10.7" height="10.6"/>
	</g>
	<g id="build2h_1_">
		<rect x="3371.2" y="599.9" class="st1" width="66.8" height="193.2"/>
		<rect x="3416.6" y="614.5" class="st1" width="9.9" height="9.8"/>
		<rect x="3396.8" y="614.5" class="st1" width="10.7" height="10.6"/>
		<rect x="3377" y="614.5" class="st1" width="10.7" height="10.6"/>
		<rect x="3416.6" y="634.9" class="st1" width="9.9" height="9.8"/>
		<rect x="3396.8" y="634.9" class="st1" width="10.7" height="10.6"/>
		<rect x="3377" y="634.9" class="st1" width="10.7" height="10.6"/>
		<rect x="3416.6" y="655.3" class="st1" width="9.9" height="9.8"/>
		<rect x="3396.8" y="655.3" class="st1" width="10.7" height="10.6"/>
		<rect x="3377" y="655.3" class="st1" width="10.7" height="10.6"/>
		<rect x="3416.6" y="675.7" class="st1" width="9.9" height="9.8"/>
		<rect x="3396.8" y="675.7" class="st1" width="10.7" height="10.6"/>
		<rect x="3377" y="675.7" class="st1" width="10.7" height="10.6"/>
		<rect x="3416.6" y="696" class="st1" width="9.9" height="9.8"/>
		<rect x="3396.8" y="696" class="st1" width="10.7" height="10.6"/>
		<rect x="3377" y="696" class="st1" width="10.7" height="10.6"/>
		<rect x="3416.6" y="716.4" class="st1" width="9.9" height="9.8"/>
		<rect x="3396.8" y="716.4" class="st1" width="10.7" height="10.6"/>
		<rect x="3377" y="716.4" class="st1" width="10.7" height="10.6"/>
		<rect x="3416.6" y="736.8" class="st1" width="9.9" height="9.8"/>
		<rect x="3396.8" y="736.8" class="st1" width="10.7" height="10.6"/>
		<rect x="3377" y="736.8" class="st1" width="10.7" height="10.6"/>
		<rect x="3416.6" y="757.2" class="st1" width="9.9" height="9.8"/>
		<rect x="3396.8" y="757.2" class="st1" width="10.7" height="10.6"/>
		<rect x="3377" y="757.2" class="st1" width="10.7" height="10.6"/>
	</g>
</g>
<g id="background_1_">
	<rect x="2640.8" y="616.2" class="st0" width="42" height="55.4"/>
	<rect x="2612.8" y="562.4" class="st0" width="49.5" height="110"/>
	<rect x="2645.7" y="541.2" class="st0" width="7.4" height="26.1"/>
	<rect x="2630.1" y="539.6" class="st0" width="7.4" height="26.1"/>
	<rect x="2833.7" y="502.1" class="st0" width="44.5" height="282"/>
	<rect x="2798.3" y="552.6" class="st0" width="41.2" height="47.3"/>
	<rect x="2766.9" y="537.9" class="st0" width="19" height="58.7"/>
	<rect x="2802.4" y="545.3" class="st0" width="9.9" height="9.8"/>
	<rect x="2824.6" y="533" class="st0" width="2.5" height="22"/>
	<rect x="2979.6" y="460.5" class="st0" width="53.6" height="111.7"/>
	<rect x="2921.1" y="395.3" class="st0" width="70.9" height="93.7"/>
	<polygon class="st0" points="3033.4,460.7 3007.7,430 2982.1,460.7 	"/>
	<rect x="3158.5" y="582.8" class="st0" width="44.5" height="210.3"/>
	<rect x="3371.2" y="548.8" class="st0" width="50.3" height="46.9"/>
	<rect x="3302" y="467.2" class="st0" width="60.2" height="25.1"/>
	<path class="st0" d="M2961.9,334.1l29.3,60.7c1.9,4-1,8.6-5.5,8.6h-58.5c-4.5,0-7.4-4.6-5.5-8.6l29.2-60.7
		C2953.1,329.5,2959.7,329.5,2961.9,334.1z"/>
	<g>
		<path class="st0" d="M2956.1,273c-0.6,6.8-1,13.6-1.5,20.4l-0.6,10.2l-0.5,10.2c-0.2,3.4-0.5,6.8-0.7,10.2
			c-0.2,3.4-0.2,6.8,0,10.2c0.2,3.4,0.6,6.8,1.1,10.2c0.5,3.4,1.2,6.8,2.2,10.2h0.7c1.1-3.4,1.7-6.8,2.2-10.2
			c0.5-3.4,0.9-6.8,1.1-10.2c0.2-3.4,0.2-6.8,0-10.2c-0.2-3.4-0.6-6.8-0.7-10.2l-0.5-10.2l-0.6-10.2c-0.5-6.8-0.9-13.6-1.5-20.4
			H2956.1z"/>
	</g>
	<rect x="3404.4" y="540.4" class="st0" width="7.9" height="8.5"/>
	<rect x="3303.4" y="452.3" class="st0" width="58.8" height="16.7"/>
</g>
<rect x="2379.5" y="613.5" class="st0" width="72" height="167"/>
<rect x="2415" y="554" class="st0" width="36" height="71"/>
<rect x="2384" y="587" class="st0" width="24" height="35"/>
<g id="houses1_3_">
	<g id="house1a_3_">
		<g>
			<path class="st0" d="M1473.3,543.3v230.8h76.5V543.3L1473.3,543.3 M1467.9,538h87.2v241.4h-87.2V538L1467.9,538z"/>
		</g>
		<g>
			<g>
				<path class="st0" d="M1528.5,559.3v12.6h7.3v-12.6H1528.5 M1523.2,554h18v23.2h-18V554L1523.2,554z"/>
			</g>
			<g>
				<path class="st0" d="M1487.9,559.3v12.6h7.3v-12.6H1487.9 M1482.6,554h18v23.2h-18V554L1482.6,554z"/>
			</g>
		</g>
		<g>
			<g>
				<path class="st0" d="M1528.5,601.7v12.6h7.3v-12.6H1528.5 M1523.2,596.4h18v23.2h-18V596.4L1523.2,596.4z"/>
			</g>
			<g>
				<path class="st0" d="M1487.9,601.7v12.6h7.3v-12.6H1487.9 M1482.6,596.4h18v23.2h-18V596.4L1482.6,596.4z"/>
			</g>
		</g>
		<g>
			<g>
				<path class="st0" d="M1528.5,640.2v12.6h7.3v-12.6H1528.5 M1523.2,634.9h18v23.2h-18V634.9L1523.2,634.9z"/>
			</g>
			<g>
				<path class="st0" d="M1487.9,640.2v12.6h7.3v-12.6H1487.9 M1482.6,634.9h18v23.2h-18V634.9L1482.6,634.9z"/>
			</g>
		</g>
		<g>
			<g>
				<path class="st0" d="M1528.5,682.6v12.6h7.3v-12.6H1528.5 M1523.2,677.3h18v23.2h-18V677.3L1523.2,677.3z"/>
			</g>
			<g>
				<path class="st0" d="M1487.9,682.6v12.6h7.3v-12.6H1487.9 M1482.6,677.3h18v23.2h-18V677.3L1482.6,677.3z"/>
			</g>
		</g>
		<g>
			<g>
				<path class="st0" d="M1528.5,725.1v12.6h7.3v-12.6H1528.5 M1523.2,719.8h18V743h-18V719.8L1523.2,719.8z"/>
			</g>
			<g>
				<path class="st0" d="M1487.9,725.1v12.6h7.3v-12.6H1487.9 M1482.6,719.8h18V743h-18V719.8L1482.6,719.8z"/>
			</g>
		</g>
	</g>
	<g id="house1b_3_">
		<g>
			<path class="st0" d="M864.4,571.2V802h76.5V571.2L864.4,571.2 M859.1,565.9h87.2v241.4h-87.2V565.9L859.1,565.9z"/>
		</g>
		<g>
			<g>
				<path class="st0" d="M919.6,587.1v12.6h7.3v-12.6H919.6 M914.3,581.8h18V605h-18V581.8L914.3,581.8z"/>
			</g>
			<g>
				<path class="st0" d="M879,587.1v12.6h7.3v-12.6H879 M873.7,581.8h18V605h-18V581.8L873.7,581.8z"/>
			</g>
		</g>
		<g>
			<g>
				<path class="st0" d="M919.6,629.6v12.6h7.3v-12.6H919.6 M914.3,624.3h18v23.2h-18V624.3L914.3,624.3z"/>
			</g>
			<g>
				<path class="st0" d="M879,629.6v12.6h7.3v-12.6H879 M873.7,624.3h18v23.2h-18V624.3L873.7,624.3z"/>
			</g>
		</g>
		<g>
			<g>
				<path class="st0" d="M919.6,668v12.6h7.3V668H919.6 M914.3,662.7h18v23.2h-18V662.7L914.3,662.7z"/>
			</g>
			<g>
				<path class="st0" d="M879,668v12.6h7.3V668H879 M873.7,662.7h18v23.2h-18V662.7L873.7,662.7z"/>
			</g>
		</g>
		<g>
			<g>
				<path class="st0" d="M919.6,710.5v12.6h7.3v-12.6H919.6 M914.3,705.2h18v23.2h-18V705.2L914.3,705.2z"/>
			</g>
			<g>
				<path class="st0" d="M879,710.5v12.6h7.3v-12.6H879 M873.7,705.2h18v23.2h-18V705.2L873.7,705.2z"/>
			</g>
		</g>
		<g>
			<g>
				<path class="st0" d="M919.6,752.9v12.6h7.3v-12.6H919.6 M914.3,747.6h18v23.2h-18V747.6L914.3,747.6z"/>
			</g>
			<g>
				<path class="st0" d="M879,752.9v12.6h7.3v-12.6H879 M873.7,747.6h18v23.2h-18V747.6L873.7,747.6z"/>
			</g>
		</g>
	</g>
	<g>
		<path class="st0" d="M1159.2,542.7v236.8h76.5V542.7L1159.2,542.7 M1153.8,537.4h87.2v247.4h-87.2V537.4L1153.8,537.4z"/>
	</g>
	<g>
		<g>
			<path class="st0" d="M1214.4,558.6v12.6h7.3v-12.6H1214.4 M1209.1,553.3h18v23.2h-18V553.3L1209.1,553.3z"/>
		</g>
		<g>
			<path class="st0" d="M1173.8,558.6v12.6h7.3v-12.6H1173.8 M1168.5,553.3h18v23.2h-18V553.3L1168.5,553.3z"/>
		</g>
	</g>
	<g>
		<g>
			<path class="st0" d="M1214.4,601v12.6h7.3V601H1214.4 M1209.1,595.7h18v23.2h-18V595.7L1209.1,595.7z"/>
		</g>
		<g>
			<path class="st0" d="M1173.8,601v12.6h7.3V601H1173.8 M1168.5,595.7h18v23.2h-18V595.7L1168.5,595.7z"/>
		</g>
	</g>
	<g>
		<g>
			<path class="st0" d="M1214.4,640.8v12.6h7.3v-12.6H1214.4 M1209.1,635.5h18v23.2h-18V635.5L1209.1,635.5z"/>
		</g>
		<g>
			<path class="st0" d="M1173.8,640.8v12.6h7.3v-12.6H1173.8 M1168.5,635.5h18v23.2h-18V635.5L1168.5,635.5z"/>
		</g>
	</g>
	<g>
		<g>
			<path class="st0" d="M1214.4,682v12.6h7.3V682H1214.4 M1209.1,676.6h18v23.2h-18V676.6L1209.1,676.6z"/>
		</g>
		<g>
			<path class="st0" d="M1173.8,682v12.6h7.3V682H1173.8 M1168.5,676.6h18v23.2h-18V676.6L1168.5,676.6z"/>
		</g>
	</g>
	<g>
		<g>
			<path class="st0" d="M1213.7,717.8v12.6h7.3v-12.6H1213.7 M1208.4,712.5h18v23.2h-18V712.5L1208.4,712.5z"/>
		</g>
		<g>
			<path class="st0" d="M1173.1,717.8v12.6h7.3v-12.6H1173.1 M1167.8,712.5h18v23.2h-18V712.5L1167.8,712.5z"/>
		</g>
	</g>
	<g>
		<g>
			<path class="st0" d="M1214.4,753.6v12.6h7.3v-12.6H1214.4 M1209.1,748.3h18v23.2h-18V748.3L1209.1,748.3z"/>
		</g>
		<g>
			<path class="st0" d="M1173.8,753.6v12.6h7.3v-12.6H1173.8 M1168.5,748.3h18v23.2h-18V748.3L1168.5,748.3z"/>
		</g>
	</g>
</g>
<g>
	<g id="build2b_3_">
		<line class="st1" x1="1485.9" y1="519.5" x2="1434" y2="519.5"/>
		<line class="st1" x1="1485.9" y1="533.4" x2="1434" y2="533.4"/>
		<line class="st1" x1="1467.9" y1="546" x2="1434" y2="546"/>
		<line class="st1" x1="1467.9" y1="559.9" x2="1434" y2="559.9"/>
		<g>
			<line class="st1" x1="1419.4" y1="779.4" x2="1419.4" y2="494.3"/>
			<line class="st1" x1="1497.9" y1="494.3" x2="1419.4" y2="494.3"/>
			<line class="st1" x1="1497.9" y1="542.7" x2="1497.9" y2="494.3"/>
		</g>
		<line class="st1" x1="1467.9" y1="573.8" x2="1434" y2="573.8"/>
		<line class="st1" x1="1467.9" y1="587.8" x2="1434" y2="587.8"/>
		<line class="st1" x1="1467.9" y1="601.7" x2="1434" y2="601.7"/>
		<line class="st1" x1="1467.9" y1="615.6" x2="1434" y2="615.6"/>
		<line class="st1" x1="1467.9" y1="629.6" x2="1434" y2="629.6"/>
		<line class="st1" x1="1467.9" y1="643.5" x2="1434" y2="643.5"/>
		<line class="st1" x1="1467.9" y1="657.4" x2="1434" y2="657.4"/>
		<line class="st1" x1="1467.9" y1="671.3" x2="1434" y2="671.3"/>
		<line class="st1" x1="1467.9" y1="685.3" x2="1434" y2="685.3"/>
		<line class="st1" x1="1467.9" y1="699.2" x2="1434" y2="699.2"/>
		<line class="st1" x1="1467.9" y1="713.1" x2="1434" y2="713.1"/>
		<line class="st1" x1="1467.9" y1="727.1" x2="1434" y2="727.1"/>
		<line class="st1" x1="1467.9" y1="741" x2="1434" y2="741"/>
		<line class="st1" x1="1469.9" y1="752.3" x2="1436" y2="752.3"/>
		<line class="st1" x1="1469.3" y1="766.2" x2="1435.3" y2="766.2"/>
	</g>
	<g id="build2a_3_">
		<line class="st1" x1="879.7" y1="516.8" x2="827.8" y2="516.8"/>
		<line class="st1" x1="879.7" y1="530.7" x2="827.8" y2="530.7"/>
		<line class="st1" x1="879.7" y1="543.3" x2="827.8" y2="543.3"/>
		<line class="st1" x1="879.7" y1="557.3" x2="827.8" y2="557.3"/>
		<line class="st1" x1="813.1" y1="776.8" x2="813.1" y2="491.6"/>
		<line class="st1" x1="891.7" y1="491.6" x2="813.1" y2="491.6"/>
		<line class="st1" x1="891.7" y1="571.2" x2="891.7" y2="491.6"/>
		<line class="st1" x1="861.7" y1="571.2" x2="827.8" y2="571.2"/>
		<line class="st1" x1="861.7" y1="585.1" x2="827.8" y2="585.1"/>
		<line class="st1" x1="861.7" y1="599.1" x2="827.8" y2="599.1"/>
		<line class="st1" x1="861.7" y1="613" x2="827.8" y2="613"/>
		<line class="st1" x1="861.7" y1="626.9" x2="827.8" y2="626.9"/>
		<line class="st1" x1="861.7" y1="640.8" x2="827.8" y2="640.8"/>
		<line class="st1" x1="861.7" y1="654.8" x2="827.8" y2="654.8"/>
		<line class="st1" x1="861.7" y1="668.7" x2="827.8" y2="668.7"/>
		<line class="st1" x1="861.7" y1="682.6" x2="827.8" y2="682.6"/>
		<line class="st1" x1="861.7" y1="696.5" x2="827.8" y2="696.5"/>
		<line class="st1" x1="861.7" y1="710.5" x2="827.8" y2="710.5"/>
		<line class="st1" x1="861.7" y1="724.4" x2="827.8" y2="724.4"/>
		<line class="st1" x1="861.7" y1="738.3" x2="827.8" y2="738.3"/>
		<line class="st1" x1="863.7" y1="749.6" x2="829.8" y2="749.6"/>
		<line class="st1" x1="863.1" y1="763.5" x2="829.1" y2="763.5"/>
	</g>
	<g id="build2c_3_">
		<rect x="942.9" y="688.6" class="st1" width="76.5" height="86.2"/>
		<line class="st1" x1="1004.1" y1="699.9" x2="1003.5" y2="770.8"/>
		<line class="st1" x1="988.8" y1="710.5" x2="942.9" y2="710.5"/>
		<line class="st1" x1="988.8" y1="727.1" x2="942.9" y2="727.1"/>
		<line class="st1" x1="988.8" y1="743" x2="942.9" y2="742.3"/>
		<line class="st1" x1="988.2" y1="758.2" x2="942.2" y2="758.2"/>
		<line class="st1" x1="988.2" y1="774.8" x2="942.2" y2="774.8"/>
	</g>
	<g id="build2d_3_">
		<rect x="1236.4" y="607.7" class="st1" width="84.5" height="167.1"/>
		<line class="st1" x1="1307.6" y1="618.9" x2="1306.2" y2="774.8"/>
		<line class="st1" x1="1292.9" y1="618.9" x2="1291.6" y2="774.8"/>
		<line class="st1" x1="1278.9" y1="618.9" x2="1277.6" y2="774.8"/>
		<line class="st1" x1="1264.3" y1="618.9" x2="1263" y2="774.8"/>
		<line class="st1" x1="1251.7" y1="618.3" x2="1250.3" y2="774.1"/>
		<line class="st1" x1="1237" y1="618.3" x2="1235.7" y2="774.1"/>
	</g>
	<g>
		<g>
			<line class="st1" x1="1282.3" y1="605.7" x2="1282.3" y2="406.1"/>
			<rect x="1296.2" y="353" class="st2" width="74.5" height="55"/>
			<line class="st1" x1="1387.4" y1="408" x2="1282.3" y2="408"/>
			<line class="st1" x1="1384.1" y1="408" x2="1382.1" y2="798"/>
			<line class="st1" x1="1370.8" y1="420" x2="1370.8" y2="776.8"/>
			<line class="st1" x1="1358.8" y1="420" x2="1292.3" y2="420"/>
			<line class="st1" x1="1358.8" y1="435.2" x2="1292.3" y2="435.2"/>
			<line class="st1" x1="1358.8" y1="450.5" x2="1292.3" y2="450.5"/>
			<line class="st1" x1="1358.8" y1="465.7" x2="1292.3" y2="465.7"/>
			<line class="st1" x1="1358.8" y1="481" x2="1292.3" y2="481"/>
			<line class="st1" x1="1358.8" y1="496.3" x2="1292.3" y2="496.3"/>
			<line class="st1" x1="1358.8" y1="511.5" x2="1292.3" y2="511.5"/>
			<line class="st1" x1="1358.8" y1="526.8" x2="1292.3" y2="526.8"/>
			<line class="st1" x1="1358.8" y1="542" x2="1292.3" y2="542"/>
			<line class="st1" x1="1358.8" y1="557.3" x2="1292.3" y2="557.3"/>
			<line class="st1" x1="1358.8" y1="572.5" x2="1292.3" y2="572.5"/>
			<line class="st1" x1="1358.8" y1="587.8" x2="1292.3" y2="587.8"/>
		</g>
		<line class="st1" x1="1358.8" y1="603" x2="1292.3" y2="603"/>
		<line class="st1" x1="1357.5" y1="618.9" x2="1320.9" y2="618.9"/>
		<line class="st1" x1="1357.5" y1="634.2" x2="1320.9" y2="634.2"/>
		<line class="st1" x1="1357.5" y1="649.5" x2="1320.9" y2="649.5"/>
		<line class="st1" x1="1357.5" y1="664.7" x2="1320.9" y2="664.7"/>
		<line class="st1" x1="1357.5" y1="680" x2="1320.9" y2="680"/>
		<line class="st1" x1="1357.5" y1="695.2" x2="1320.2" y2="695.2"/>
		<line class="st1" x1="1357.5" y1="710.5" x2="1320.9" y2="710.5"/>
		<line class="st1" x1="1357.5" y1="725.7" x2="1320.2" y2="725.7"/>
		<line class="st1" x1="1357.5" y1="741" x2="1322.9" y2="741"/>
		<line class="st1" x1="1357.5" y1="756.2" x2="1322.9" y2="756.2"/>
		<line class="st1" x1="1357.5" y1="771.5" x2="1320.9" y2="771.5"/>
		<line class="st1" x1="1357.5" y1="786.7" x2="1290.9" y2="786.7"/>
	</g>
	<g id="build2f_3_">
		<rect x="1006.1" y="482.3" class="st1" width="53.2" height="10.6"/>
		<rect x="1006.1" y="505.5" class="st1" width="53.2" height="10.6"/>
		<rect x="1006.1" y="528.8" class="st1" width="53.2" height="10.6"/>
		<rect x="1006.1" y="552" class="st1" width="53.2" height="10.6"/>
		<rect x="1005.5" y="575.2" class="st1" width="53.2" height="10.6"/>
		<rect x="1005.5" y="598.4" class="st1" width="53.2" height="10.6"/>
		<rect x="1005.5" y="621.6" class="st1" width="53.2" height="10.6"/>
		<rect x="1005.5" y="644.8" class="st1" width="53.2" height="10.6"/>
		<g>
			<polygon class="st1" points="1032.7,407.4 1067.3,469.5 998.1,469.5 			"/>
			<line class="st1" x1="1067.3" y1="469.7" x2="1067.3" y2="779.4"/>
			<line class="st1" x1="997.5" y1="469.7" x2="997.5" y2="687.9"/>
		</g>
		<rect x="1005.5" y="666.7" class="st1" width="53.2" height="10.6"/>
		<rect x="1020.8" y="688.6" class="st1" width="37.9" height="10.6"/>
		<rect x="1020.1" y="710.5" class="st1" width="38.6" height="10.6"/>
		<rect x="1020.1" y="731" class="st1" width="37.9" height="10.6"/>
		<rect x="1019.4" y="752.9" class="st1" width="38.6" height="10.6"/>
	</g>
	<g id="build2g_3_">
		<rect x="1067.3" y="629.6" class="st1" width="53.9" height="157.2"/>
		<rect x="1103.9" y="641.5" class="st1" width="8" height="8"/>
		<rect x="1088" y="641.5" class="st1" width="8.7" height="8.6"/>
		<rect x="1072" y="641.5" class="st1" width="8.7" height="8.6"/>
		<rect x="1103.9" y="658.1" class="st1" width="8" height="8"/>
		<rect x="1088" y="658.1" class="st1" width="8.7" height="8.6"/>
		<rect x="1072" y="658.1" class="st1" width="8.7" height="8.6"/>
		<rect x="1103.9" y="674.7" class="st1" width="8" height="8"/>
		<rect x="1088" y="674.7" class="st1" width="8.7" height="8.6"/>
		<rect x="1072" y="674.7" class="st1" width="8.7" height="8.6"/>
		<rect x="1103.9" y="691.2" class="st1" width="8" height="8"/>
		<rect x="1088" y="691.2" class="st1" width="8.7" height="8.6"/>
		<rect x="1072" y="691.2" class="st1" width="8.7" height="8.6"/>
		<rect x="1103.9" y="707.8" class="st1" width="8" height="8"/>
		<rect x="1088" y="707.8" class="st1" width="8.7" height="8.6"/>
		<rect x="1072" y="707.8" class="st1" width="8.7" height="8.6"/>
		<rect x="1103.9" y="724.4" class="st1" width="8" height="8"/>
		<rect x="1088" y="724.4" class="st1" width="8.7" height="8.6"/>
		<rect x="1072" y="724.4" class="st1" width="8.7" height="8.6"/>
		<rect x="1103.9" y="741" class="st1" width="8" height="8"/>
		<rect x="1088" y="741" class="st1" width="8.7" height="8.6"/>
		<rect x="1072" y="741" class="st1" width="8.7" height="8.6"/>
		<rect x="1103.9" y="757.6" class="st1" width="8" height="8"/>
		<rect x="1088" y="757.6" class="st1" width="8.7" height="8.6"/>
		<rect x="1072" y="757.6" class="st1" width="8.7" height="8.6"/>
	</g>
	<g id="build2h_3_">
		<rect x="1555.1" y="629.6" class="st1" width="53.9" height="157.2"/>
		<rect x="1591.7" y="641.5" class="st1" width="8" height="8"/>
		<rect x="1575.7" y="641.5" class="st1" width="8.7" height="8.6"/>
		<rect x="1559.8" y="641.5" class="st1" width="8.7" height="8.6"/>
		<rect x="1591.7" y="658.1" class="st1" width="8" height="8"/>
		<rect x="1575.7" y="658.1" class="st1" width="8.7" height="8.6"/>
		<rect x="1559.8" y="658.1" class="st1" width="8.7" height="8.6"/>
		<rect x="1591.7" y="674.7" class="st1" width="8" height="8"/>
		<rect x="1575.7" y="674.7" class="st1" width="8.7" height="8.6"/>
		<rect x="1559.8" y="674.7" class="st1" width="8.7" height="8.6"/>
		<rect x="1591.7" y="691.2" class="st1" width="8" height="8"/>
		<rect x="1575.7" y="691.2" class="st1" width="8.7" height="8.6"/>
		<rect x="1559.8" y="691.2" class="st1" width="8.7" height="8.6"/>
		<rect x="1591.7" y="707.8" class="st1" width="8" height="8"/>
		<rect x="1575.7" y="707.8" class="st1" width="8.7" height="8.6"/>
		<rect x="1559.8" y="707.8" class="st1" width="8.7" height="8.6"/>
		<rect x="1591.7" y="724.4" class="st1" width="8" height="8"/>
		<rect x="1575.7" y="724.4" class="st1" width="8.7" height="8.6"/>
		<rect x="1559.8" y="724.4" class="st1" width="8.7" height="8.6"/>
		<rect x="1591.7" y="741" class="st1" width="8" height="8"/>
		<rect x="1575.7" y="741" class="st1" width="8.7" height="8.6"/>
		<rect x="1559.8" y="741" class="st1" width="8.7" height="8.6"/>
		<rect x="1591.7" y="757.6" class="st1" width="8" height="8"/>
		<rect x="1575.7" y="757.6" class="st1" width="8.7" height="8.6"/>
		<rect x="1559.8" y="757.6" class="st1" width="8.7" height="8.6"/>
	</g>
</g>
<g id="background_3_">
	<rect x="965.5" y="642.8" class="st0" width="33.9" height="45.1"/>
	<rect x="942.9" y="599.1" class="st0" width="39.9" height="89.5"/>
	<rect x="969.5" y="581.8" class="st0" width="6" height="21.2"/>
	<rect x="956.9" y="580.5" class="st0" width="6" height="21.2"/>
	<rect x="1121.2" y="550" class="st0" width="35.9" height="229.5"/>
	<rect x="1092.6" y="591.1" class="st0" width="33.3" height="38.5"/>
	<rect x="1067.3" y="579.2" class="st0" width="15.3" height="47.8"/>
	<rect x="1096" y="585.1" class="st0" width="8" height="8"/>
	<rect x="1113.9" y="575.2" class="st0" width="2" height="17.9"/>
	<rect x="1239" y="516.2" class="st0" width="43.3" height="90.9"/>
	<rect x="1191.8" y="463.1" class="st0" width="57.2" height="76.3"/>
	<polygon class="st0" points="1282.4,516.3 1261.7,491.3 1241,516.3 	"/>
	<rect x="1383.4" y="615.6" class="st0" width="35.9" height="171.1"/>
	<rect x="1555.1" y="588" class="st0" width="40.6" height="38.2"/>
	<rect x="1499.2" y="521.6" class="st0" width="48.6" height="20.4"/>
	<path class="st0" d="M1224.7,413.3l23.6,49.4c1.5,3.2-0.8,7-4.5,7h-47.2c-3.6,0-6-3.8-4.5-7l23.6-49.4
		C1217.6,409.6,1222.9,409.6,1224.7,413.3z"/>
	<g>
		<path class="st0" d="M1220.1,363.6c-0.5,5.5-0.8,11.1-1.2,16.6l-0.5,8.3l-0.4,8.3c-0.1,2.8-0.4,5.5-0.6,8.3
			c-0.2,2.8-0.2,5.5,0,8.3c0.2,2.8,0.5,5.5,0.9,8.3c0.4,2.8,0.9,5.5,1.8,8.3h0.6c0.9-2.8,1.4-5.5,1.8-8.3c0.4-2.8,0.7-5.5,0.9-8.3
			c0.2-2.8,0.1-5.5,0-8.3c-0.2-2.8-0.5-5.5-0.6-8.3l-0.4-8.3l-0.5-8.3c-0.4-5.5-0.7-11.1-1.2-16.6H1220.1z"/>
	</g>
	<rect x="1581.9" y="581.1" class="st0" width="6.4" height="6.9"/>
	<rect x="1500.3" y="509.5" class="st0" width="47.4" height="13.6"/>
</g>
<g id="houses1_2_">
	<g id="house1a_2_">
		<g>
			<path class="st0" d="M-81,509.9v283.6h-95.3V509.9L-81,509.9 M-74.4,503.4h-108.5v296.7h108.5V503.4L-74.4,503.4z"/>
		</g>
		<g>
			<g>
				<path class="st0" d="M-149.8,529.5V545h-9.1v-15.5H-149.8 M-143.1,523h-22.4v28.5h22.4V523L-143.1,523z"/>
			</g>
			<g>
				<path class="st0" d="M-99.2,529.5V545h-9.1v-15.5H-99.2 M-92.6,523H-115v28.5h22.4V523L-92.6,523z"/>
			</g>
		</g>
		<g>
			<g>
				<path class="st0" d="M-149.8,581.6v15.5h-9.1v-15.5H-149.8 M-143.1,575.1h-22.4v28.5h22.4V575.1L-143.1,575.1z"/>
			</g>
			<g>
				<path class="st0" d="M-99.2,581.6v15.5h-9.1v-15.5H-99.2 M-92.6,575.1H-115v28.5h22.4V575.1L-92.6,575.1z"/>
			</g>
		</g>
		<g>
			<g>
				<path class="st0" d="M-149.8,628.9v15.5h-9.1v-15.5H-149.8 M-143.1,622.4h-22.4v28.5h22.4V622.4L-143.1,622.4z"/>
			</g>
			<g>
				<path class="st0" d="M-99.2,628.9v15.5h-9.1v-15.5H-99.2 M-92.6,622.4H-115v28.5h22.4V622.4L-92.6,622.4z"/>
			</g>
		</g>
		<g>
			<g>
				<path class="st0" d="M-149.8,681.1v15.5h-9.1v-15.5H-149.8 M-143.1,674.6h-22.4v28.5h22.4V674.6L-143.1,674.6z"/>
			</g>
			<g>
				<path class="st0" d="M-99.2,681.1v15.5h-9.1v-15.5H-99.2 M-92.6,674.6H-115v28.5h22.4V674.6L-92.6,674.6z"/>
			</g>
		</g>
		<g>
			<g>
				<path class="st0" d="M-149.8,733.2v15.5h-9.1v-15.5H-149.8 M-143.1,726.7h-22.4v28.5h22.4V726.7L-143.1,726.7z"/>
			</g>
			<g>
				<path class="st0" d="M-99.2,733.2v15.5h-9.1v-15.5H-99.2 M-92.6,726.7H-115v28.5h22.4V726.7L-92.6,726.7z"/>
			</g>
		</g>
	</g>
	<g id="house1b_2_">
		<g>
			<path class="st0" d="M677,544.1v283.6h-95.3V544.1H677 M683.6,537.6H575.1v296.7h108.5V537.6L683.6,537.6z"/>
		</g>
		<g>
			<g>
				<path class="st0" d="M608.2,563.7v15.5h-9.1v-15.5H608.2 M614.9,557.2h-22.4v28.5h22.4V557.2L614.9,557.2z"/>
			</g>
			<g>
				<path class="st0" d="M658.8,563.7v15.5h-9.1v-15.5H658.8 M665.4,557.2H643v28.5h22.4V557.2L665.4,557.2z"/>
			</g>
		</g>
		<g>
			<g>
				<path class="st0" d="M608.2,615.9v15.5h-9.1v-15.5H608.2 M614.9,609.3h-22.4v28.5h22.4V609.3L614.9,609.3z"/>
			</g>
			<g>
				<path class="st0" d="M658.8,615.9v15.5h-9.1v-15.5H658.8 M665.4,609.3H643v28.5h22.4V609.3L665.4,609.3z"/>
			</g>
		</g>
		<g>
			<g>
				<path class="st0" d="M608.2,663.1v15.5h-9.1v-15.5H608.2 M614.9,656.6h-22.4v28.5h22.4V656.6L614.9,656.6z"/>
			</g>
			<g>
				<path class="st0" d="M658.8,663.1v15.5h-9.1v-15.5H658.8 M665.4,656.6H643v28.5h22.4V656.6L665.4,656.6z"/>
			</g>
		</g>
		<g>
			<g>
				<path class="st0" d="M608.2,715.3v15.5h-9.1v-15.5H608.2 M614.9,708.8h-22.4v28.5h22.4V708.8L614.9,708.8z"/>
			</g>
			<g>
				<path class="st0" d="M658.8,715.3v15.5h-9.1v-15.5H658.8 M665.4,708.8H643v28.5h22.4V708.8L665.4,708.8z"/>
			</g>
		</g>
		<g>
			<g>
				<path class="st0" d="M608.2,767.5V783h-9.1v-15.5H608.2 M614.9,760.9h-22.4v28.5h22.4V760.9L614.9,760.9z"/>
			</g>
			<g>
				<path class="st0" d="M658.8,767.5V783h-9.1v-15.5H658.8 M665.4,760.9H643v28.5h22.4V760.9L665.4,760.9z"/>
			</g>
		</g>
	</g>
	<g>
		<path class="st0" d="M310,509.1v291h-95.3v-291L310,509.1 M316.6,502.6H208.1v304h108.5V502.6L316.6,502.6z"/>
	</g>
	<g>
		<g>
			<path class="st0" d="M241.3,528.7v15.5h-9.1v-15.5H241.3 M247.9,522.1h-22.4v28.5h22.4V522.1L247.9,522.1z"/>
		</g>
		<g>
			<path class="st0" d="M291.8,528.7v15.5h-9.1v-15.5H291.8 M298.4,522.1h-22.4v28.5h22.4V522.1L298.4,522.1z"/>
		</g>
	</g>
	<g>
		<g>
			<path class="st0" d="M241.3,580.8v15.5h-9.1v-15.5H241.3 M247.9,574.3h-22.4v28.5h22.4V574.3L247.9,574.3z"/>
		</g>
		<g>
			<path class="st0" d="M291.8,580.8v15.5h-9.1v-15.5H291.8 M298.4,574.3h-22.4v28.5h22.4V574.3L298.4,574.3z"/>
		</g>
	</g>
	<g>
		<g>
			<path class="st0" d="M241.3,629.7v15.5h-9.1v-15.5H241.3 M247.9,623.2h-22.4v28.5h22.4V623.2L247.9,623.2z"/>
		</g>
		<g>
			<path class="st0" d="M291.8,629.7v15.5h-9.1v-15.5H291.8 M298.4,623.2h-22.4v28.5h22.4V623.2L298.4,623.2z"/>
		</g>
	</g>
	<g>
		<g>
			<path class="st0" d="M241.3,680.3v15.5h-9.1v-15.5H241.3 M247.9,673.7h-22.4v28.5h22.4V673.7L247.9,673.7z"/>
		</g>
		<g>
			<path class="st0" d="M291.8,680.3v15.5h-9.1v-15.5H291.8 M298.4,673.7h-22.4v28.5h22.4V673.7L298.4,673.7z"/>
		</g>
	</g>
	<g>
		<g>
			<path class="st0" d="M242.1,724.3v15.5H233v-15.5H242.1 M248.7,717.7h-22.4v28.5h22.4V717.7L248.7,717.7z"/>
		</g>
		<g>
			<path class="st0" d="M292.6,724.3v15.5h-9.1v-15.5H292.6 M299.2,717.7h-22.4v28.5h22.4V717.7L299.2,717.7z"/>
		</g>
	</g>
	<g>
		<g>
			<path class="st0" d="M241.3,768.3v15.5h-9.1v-15.5H241.3 M247.9,761.8h-22.4v28.5h22.4V761.8L247.9,761.8z"/>
		</g>
		<g>
			<path class="st0" d="M291.8,768.3v15.5h-9.1v-15.5H291.8 M298.4,761.8h-22.4v28.5h22.4V761.8L298.4,761.8z"/>
		</g>
	</g>
</g>
<g>
	<g id="build2b_2_">
		<line class="st1" x1="-96.7" y1="480.6" x2="-32.1" y2="480.6"/>
		<line class="st1" x1="-96.7" y1="497.7" x2="-32.1" y2="497.7"/>
		<line class="st1" x1="-74.4" y1="513.2" x2="-32.1" y2="513.2"/>
		<line class="st1" x1="-74.4" y1="530.3" x2="-32.1" y2="530.3"/>
		<g>
			<line class="st1" x1="-13.9" y1="800.1" x2="-13.9" y2="449.6"/>
			<line class="st1" x1="-111.7" y1="449.6" x2="-13.9" y2="449.6"/>
			<line class="st1" x1="-111.7" y1="509.1" x2="-111.7" y2="449.6"/>
		</g>
		<line class="st1" x1="-74.4" y1="547.4" x2="-32.1" y2="547.4"/>
		<line class="st1" x1="-74.4" y1="564.5" x2="-32.1" y2="564.5"/>
		<line class="st1" x1="-74.4" y1="581.6" x2="-32.1" y2="581.6"/>
		<line class="st1" x1="-74.4" y1="598.8" x2="-32.1" y2="598.8"/>
		<line class="st1" x1="-74.4" y1="615.9" x2="-32.1" y2="615.9"/>
		<line class="st1" x1="-74.4" y1="633" x2="-32.1" y2="633"/>
		<line class="st1" x1="-74.4" y1="650.1" x2="-32.1" y2="650.1"/>
		<line class="st1" x1="-74.4" y1="667.2" x2="-32.1" y2="667.2"/>
		<line class="st1" x1="-74.4" y1="684.3" x2="-32.1" y2="684.3"/>
		<line class="st1" x1="-74.4" y1="701.4" x2="-32.1" y2="701.4"/>
		<line class="st1" x1="-74.4" y1="718.6" x2="-32.1" y2="718.6"/>
		<line class="st1" x1="-74.4" y1="735.7" x2="-32.1" y2="735.7"/>
		<line class="st1" x1="-74.4" y1="752.8" x2="-32.1" y2="752.8"/>
		<line class="st1" x1="-76.9" y1="766.7" x2="-34.6" y2="766.7"/>
		<line class="st1" x1="-76" y1="783.8" x2="-33.8" y2="783.8"/>
	</g>
	<g id="build2a_2_">
		<line class="st1" x1="658" y1="477.3" x2="722.6" y2="477.3"/>
		<line class="st1" x1="658" y1="494.4" x2="722.6" y2="494.4"/>
		<line class="st1" x1="658" y1="509.9" x2="722.6" y2="509.9"/>
		<line class="st1" x1="658" y1="527" x2="722.6" y2="527"/>
		<line class="st1" x1="740.8" y1="796.8" x2="740.8" y2="446.3"/>
		<line class="st1" x1="643" y1="446.3" x2="740.8" y2="446.3"/>
		<line class="st1" x1="643" y1="544.1" x2="643" y2="446.3"/>
		<line class="st1" x1="680.3" y1="544.1" x2="722.6" y2="544.1"/>
		<line class="st1" x1="680.3" y1="561.3" x2="722.6" y2="561.3"/>
		<line class="st1" x1="680.3" y1="578.4" x2="722.6" y2="578.4"/>
		<line class="st1" x1="680.3" y1="595.5" x2="722.6" y2="595.5"/>
		<line class="st1" x1="680.3" y1="612.6" x2="722.6" y2="612.6"/>
		<line class="st1" x1="680.3" y1="629.7" x2="722.6" y2="629.7"/>
		<line class="st1" x1="680.3" y1="646.8" x2="722.6" y2="646.8"/>
		<line class="st1" x1="680.3" y1="664" x2="722.6" y2="664"/>
		<line class="st1" x1="680.3" y1="681.1" x2="722.6" y2="681.1"/>
		<line class="st1" x1="680.3" y1="698.2" x2="722.6" y2="698.2"/>
		<line class="st1" x1="680.3" y1="715.3" x2="722.6" y2="715.3"/>
		<line class="st1" x1="680.3" y1="732.4" x2="722.6" y2="732.4"/>
		<line class="st1" x1="680.3" y1="749.5" x2="722.6" y2="749.5"/>
		<line class="st1" x1="677.8" y1="763.4" x2="720.1" y2="763.4"/>
		<line class="st1" x1="678.7" y1="780.5" x2="720.9" y2="780.5"/>
	</g>
	<g id="build2c_2_">
		<rect x="484" y="688.4" class="st1" width="95.3" height="106"/>
		<line class="st1" x1="503" y1="702.3" x2="503.9" y2="789.5"/>
		<line class="st1" x1="522.1" y1="715.3" x2="579.3" y2="715.3"/>
		<line class="st1" x1="522.1" y1="735.7" x2="579.3" y2="735.7"/>
		<line class="st1" x1="522.1" y1="755.2" x2="579.3" y2="754.4"/>
		<line class="st1" x1="522.9" y1="774" x2="580.1" y2="774"/>
		<line class="st1" x1="522.9" y1="794.4" x2="580.1" y2="794.4"/>
	</g>
	<g id="build2d_2_">
		<rect x="108.7" y="589" class="st1" width="105.2" height="205.4"/>
		<line class="st1" x1="125.3" y1="602.8" x2="126.9" y2="794.4"/>
		<line class="st1" x1="143.5" y1="602.8" x2="145.2" y2="794.4"/>
		<line class="st1" x1="160.9" y1="602.8" x2="162.6" y2="794.4"/>
		<line class="st1" x1="179.1" y1="602.8" x2="180.8" y2="794.4"/>
		<line class="st1" x1="194.9" y1="602" x2="196.5" y2="793.5"/>
		<line class="st1" x1="213.1" y1="602" x2="214.7" y2="793.5"/>
	</g>
	<g>
		<g>
			<line class="st1" x1="156.8" y1="586.5" x2="156.8" y2="341.2"/>
			<rect x="46.6" y="276" class="st2" width="92.8" height="67.6"/>
			<line class="st1" x1="25.9" y1="343.6" x2="156.8" y2="343.6"/>
			<line class="st1" x1="30" y1="343.6" x2="32.5" y2="822.9"/>
			<line class="st1" x1="46.6" y1="358.3" x2="46.6" y2="796.8"/>
			<line class="st1" x1="61.5" y1="358.3" x2="144.3" y2="358.3"/>
			<line class="st1" x1="61.5" y1="377.1" x2="144.3" y2="377.1"/>
			<line class="st1" x1="61.5" y1="395.8" x2="144.3" y2="395.8"/>
			<line class="st1" x1="61.5" y1="414.6" x2="144.3" y2="414.6"/>
			<line class="st1" x1="61.5" y1="433.3" x2="144.3" y2="433.3"/>
			<line class="st1" x1="61.5" y1="452" x2="144.3" y2="452"/>
			<line class="st1" x1="61.5" y1="470.8" x2="144.3" y2="470.8"/>
			<line class="st1" x1="61.5" y1="489.5" x2="144.3" y2="489.5"/>
			<line class="st1" x1="61.5" y1="508.3" x2="144.3" y2="508.3"/>
			<line class="st1" x1="61.5" y1="527" x2="144.3" y2="527"/>
			<line class="st1" x1="61.5" y1="545.8" x2="144.3" y2="545.8"/>
			<line class="st1" x1="61.5" y1="564.5" x2="144.3" y2="564.5"/>
		</g>
		<line class="st1" x1="61.5" y1="583.3" x2="144.3" y2="583.3"/>
		<line class="st1" x1="63.1" y1="602.8" x2="108.7" y2="602.8"/>
		<line class="st1" x1="63.1" y1="621.6" x2="108.7" y2="621.6"/>
		<line class="st1" x1="63.1" y1="640.3" x2="108.7" y2="640.3"/>
		<line class="st1" x1="63.1" y1="659.1" x2="108.7" y2="659.1"/>
		<line class="st1" x1="63.1" y1="677.8" x2="108.7" y2="677.8"/>
		<line class="st1" x1="63.1" y1="696.6" x2="109.5" y2="696.6"/>
		<line class="st1" x1="63.1" y1="715.3" x2="108.7" y2="715.3"/>
		<line class="st1" x1="63.1" y1="734.1" x2="109.5" y2="734.1"/>
		<line class="st1" x1="63.1" y1="752.8" x2="106.2" y2="752.8"/>
		<line class="st1" x1="63.1" y1="771.5" x2="106.2" y2="771.5"/>
		<line class="st1" x1="63.1" y1="790.3" x2="108.7" y2="790.3"/>
		<line class="st1" x1="63.1" y1="809" x2="146" y2="809"/>
	</g>
	<g id="build2f_2_">
		<rect x="434.3" y="434.9" class="st1" width="66.3" height="13"/>
		<rect x="434.3" y="463.5" class="st1" width="66.3" height="13"/>
		<rect x="434.3" y="492" class="st1" width="66.3" height="13"/>
		<rect x="434.3" y="520.5" class="st1" width="66.3" height="13"/>
		<rect x="435.1" y="549" class="st1" width="66.3" height="13"/>
		<rect x="435.1" y="577.6" class="st1" width="66.3" height="13"/>
		<rect x="435.1" y="606.1" class="st1" width="66.3" height="13"/>
		<rect x="435.1" y="634.6" class="st1" width="66.3" height="13"/>
		<g>
			<polygon class="st1" points="467.4,342.8 424.3,419.1 510.5,419.1 			"/>
			<line class="st1" x1="424.3" y1="419.4" x2="424.3" y2="800.1"/>
			<line class="st1" x1="511.3" y1="419.4" x2="511.3" y2="687.6"/>
		</g>
		<rect x="435.1" y="661.5" class="st1" width="66.3" height="13"/>
		<rect x="435.1" y="688.4" class="st1" width="47.2" height="13"/>
		<rect x="435.1" y="715.3" class="st1" width="48" height="13"/>
		<rect x="435.9" y="740.6" class="st1" width="47.2" height="13"/>
		<rect x="435.9" y="767.5" class="st1" width="48" height="13"/>
	</g>
	<g id="build2g_2_">
		<rect x="357.2" y="615.9" class="st1" width="67.1" height="193.2"/>
		<rect x="368.8" y="630.5" class="st1" width="9.9" height="9.8"/>
		<rect x="387.9" y="630.5" class="st1" width="10.8" height="10.6"/>
		<rect x="407.8" y="630.5" class="st1" width="10.8" height="10.6"/>
		<rect x="368.8" y="650.9" class="st1" width="9.9" height="9.8"/>
		<rect x="387.9" y="650.9" class="st1" width="10.8" height="10.6"/>
		<rect x="407.8" y="650.9" class="st1" width="10.8" height="10.6"/>
		<rect x="368.8" y="671.3" class="st1" width="9.9" height="9.8"/>
		<rect x="387.9" y="671.3" class="st1" width="10.8" height="10.6"/>
		<rect x="407.8" y="671.3" class="st1" width="10.8" height="10.6"/>
		<rect x="368.8" y="691.7" class="st1" width="9.9" height="9.8"/>
		<rect x="387.9" y="691.7" class="st1" width="10.8" height="10.6"/>
		<rect x="407.8" y="691.7" class="st1" width="10.8" height="10.6"/>
		<rect x="368.8" y="712" class="st1" width="9.9" height="9.8"/>
		<rect x="387.9" y="712" class="st1" width="10.8" height="10.6"/>
		<rect x="407.8" y="712" class="st1" width="10.8" height="10.6"/>
		<rect x="368.8" y="732.4" class="st1" width="9.9" height="9.8"/>
		<rect x="387.9" y="732.4" class="st1" width="10.8" height="10.6"/>
		<rect x="407.8" y="732.4" class="st1" width="10.8" height="10.6"/>
		<rect x="368.8" y="752.8" class="st1" width="9.9" height="9.8"/>
		<rect x="387.9" y="752.8" class="st1" width="10.8" height="10.6"/>
		<rect x="407.8" y="752.8" class="st1" width="10.8" height="10.6"/>
		<rect x="368.8" y="773.2" class="st1" width="9.9" height="9.8"/>
		<rect x="387.9" y="773.2" class="st1" width="10.8" height="10.6"/>
		<rect x="407.8" y="773.2" class="st1" width="10.8" height="10.6"/>
	</g>
	<g id="build2h_2_">
		<rect x="-250" y="615.9" class="st1" width="67.1" height="193.2"/>
		<rect x="-238.4" y="630.5" class="st1" width="9.9" height="9.8"/>
		<rect x="-219.3" y="630.5" class="st1" width="10.8" height="10.6"/>
		<rect x="-199.5" y="630.5" class="st1" width="10.8" height="10.6"/>
		<rect x="-238.4" y="650.9" class="st1" width="9.9" height="9.8"/>
		<rect x="-219.3" y="650.9" class="st1" width="10.8" height="10.6"/>
		<rect x="-199.5" y="650.9" class="st1" width="10.8" height="10.6"/>
		<rect x="-238.4" y="671.3" class="st1" width="9.9" height="9.8"/>
		<rect x="-219.3" y="671.3" class="st1" width="10.8" height="10.6"/>
		<rect x="-199.5" y="671.3" class="st1" width="10.8" height="10.6"/>
		<rect x="-238.4" y="691.7" class="st1" width="9.9" height="9.8"/>
		<rect x="-219.3" y="691.7" class="st1" width="10.8" height="10.6"/>
		<rect x="-199.5" y="691.7" class="st1" width="10.8" height="10.6"/>
		<rect x="-238.4" y="712" class="st1" width="9.9" height="9.8"/>
		<rect x="-219.3" y="712" class="st1" width="10.8" height="10.6"/>
		<rect x="-199.5" y="712" class="st1" width="10.8" height="10.6"/>
		<rect x="-238.4" y="732.4" class="st1" width="9.9" height="9.8"/>
		<rect x="-219.3" y="732.4" class="st1" width="10.8" height="10.6"/>
		<rect x="-199.5" y="732.4" class="st1" width="10.8" height="10.6"/>
		<rect x="-238.4" y="752.8" class="st1" width="9.9" height="9.8"/>
		<rect x="-219.3" y="752.8" class="st1" width="10.8" height="10.6"/>
		<rect x="-199.5" y="752.8" class="st1" width="10.8" height="10.6"/>
		<rect x="-238.4" y="773.2" class="st1" width="9.9" height="9.8"/>
		<rect x="-219.3" y="773.2" class="st1" width="10.8" height="10.6"/>
		<rect x="-199.5" y="773.2" class="st1" width="10.8" height="10.6"/>
	</g>
</g>
<g id="background_2_">
	<rect x="508.8" y="632.2" class="st0" width="42.2" height="55.4"/>
	<rect x="529.5" y="578.4" class="st0" width="49.7" height="110"/>
	<rect x="538.7" y="557.2" class="st0" width="7.5" height="26.1"/>
	<rect x="554.4" y="555.6" class="st0" width="7.5" height="26.1"/>
	<rect x="312.5" y="518.1" class="st0" width="44.7" height="282"/>
	<rect x="351.4" y="568.6" class="st0" width="41.4" height="47.3"/>
	<rect x="405.3" y="553.9" class="st0" width="19.1" height="58.7"/>
	<rect x="378.8" y="561.3" class="st0" width="9.9" height="9.8"/>
	<rect x="363.9" y="549" class="st0" width="2.5" height="22"/>
	<rect x="156.8" y="476.5" class="st0" width="53.8" height="111.7"/>
	<rect x="198.2" y="411.3" class="st0" width="71.2" height="93.7"/>
	<polygon class="st0" points="156.6,476.7 182.4,446 208.1,476.7 	"/>
	<rect x="-13.9" y="598.8" class="st0" width="44.7" height="210.3"/>
	<rect x="-233.4" y="564.8" class="st0" width="50.5" height="46.9"/>
	<rect x="-173.8" y="483.2" class="st0" width="60.5" height="25.1"/>
	<path class="st0" d="M228.4,350.1L199,410.8c-1.9,4,1,8.6,5.6,8.6h58.7c4.5,0,7.5-4.6,5.6-8.6l-29.3-60.7
		C237.3,345.5,230.7,345.5,228.4,350.1z"/>
	<g>
		<path class="st0" d="M234.2,289c0.6,6.8,1,13.6,1.5,20.4l0.6,10.2l0.5,10.2c0.2,3.4,0.5,6.8,0.7,10.2c0.2,3.4,0.2,6.8,0,10.2
			c-0.2,3.4-0.6,6.8-1.1,10.2c-0.5,3.4-1.2,6.8-2.2,10.2h-0.7c-1.1-3.4-1.7-6.8-2.2-10.2c-0.5-3.4-0.9-6.8-1.1-10.2
			c-0.2-3.4-0.2-6.8,0-10.2c0.2-3.4,0.6-6.8,0.7-10.2l0.5-10.2l0.6-10.2c0.5-6.8,0.9-13.6,1.5-20.4H234.2z"/>
	</g>
	<rect x="-224.2" y="556.4" class="st0" width="8" height="8.5"/>
	<rect x="-173.8" y="468.3" class="st0" width="59.1" height="16.7"/>
</g>
<rect x="741.3" y="629.5" transform="matrix(-1 -1.224647e-16 1.224647e-16 -1 1554.9486 1426)" class="st0" width="72.4" height="167"/>
<rect x="741.8" y="570" transform="matrix(-1 -1.224647e-16 1.224647e-16 -1 1519.7783 1211)" class="st0" width="36.2" height="71"/>
<rect x="785" y="603" transform="matrix(-1 -1.224647e-16 1.224647e-16 -1 1594.1384 1241)" class="st0" width="24.1" height="35"/>
</svg>
