<?xml version="1.0" encoding="utf-8"?>
<!-- Generator: Adobe Illustrator 21.1.0, SVG Export Plug-In . SVG Version: 6.00 Build 0)  -->
<svg version="1.1" id="Layer_1" xmlns="http://www.w3.org/2000/svg" xmlns:xlink="http://www.w3.org/1999/xlink" x="0px" y="0px"
	 viewBox="0 0 1280 1131.3" style="enable-background:new 0 0 1280 1131.3;" xml:space="preserve">
<style type="text/css">
	.st0{display:none;}
	.st1{display:inline;}
	.st2{fill:#FFFF00;}
	.st3{fill:#D9D9D9;}
	.st4{fill:none;stroke:#D9D9D9;stroke-width:8;stroke-miterlimit:10;}
	.st5{fill:#D9D9D9;stroke:#D9D9D9;stroke-miterlimit:10;}
</style>
<g id="Layer_1_1_" class="st0">
	<g class="st1">
		<rect x="0.5" y="107.8" class="st2" width="1279" height="1023"/>
		<path d="M1279,108.3v1022H1v-1022H1279 M1280,107.3H0v1024h1280V107.3L1280,107.3z"/>
	</g>
</g>
<g id="houses1">
	<g id="house1a">
		<g>
			<path class="st3" d="M218,782.3v348H103v-348H218 M226,774.3H95v364h131V774.3L226,774.3z"/>
		</g>
		<g>
			<g>
				<path class="st3" d="M135,806.3v19h-11v-19H135 M143,798.3h-27v35h27V798.3L143,798.3z"/>
			</g>
			<g>
				<path class="st3" d="M196,806.3v19h-11v-19H196 M204,798.3h-27v35h27V798.3L204,798.3z"/>
			</g>
		</g>
		<g>
			<g>
				<path class="st3" d="M135,870.3v19h-11v-19H135 M143,862.3h-27v35h27V862.3L143,862.3z"/>
			</g>
			<g>
				<path class="st3" d="M196,870.3v19h-11v-19H196 M204,862.3h-27v35h27V862.3L204,862.3z"/>
			</g>
		</g>
		<g>
			<g>
				<path class="st3" d="M135,928.3v19h-11v-19H135 M143,920.3h-27v35h27V920.3L143,920.3z"/>
			</g>
			<g>
				<path class="st3" d="M196,928.3v19h-11v-19H196 M204,920.3h-27v35h27V920.3L204,920.3z"/>
			</g>
		</g>
		<g>
			<g>
				<path class="st3" d="M135,992.3v19h-11v-19H135 M143,984.3h-27v35h27V984.3L143,984.3z"/>
			</g>
			<g>
				<path class="st3" d="M196,992.3v19h-11v-19H196 M204,984.3h-27v35h27V984.3L204,984.3z"/>
			</g>
		</g>
		<g>
			<g>
				<path class="st3" d="M135,1056.3v19h-11v-19H135 M143,1048.3h-27v35h27V1048.3L143,1048.3z"/>
			</g>
			<g>
				<path class="st3" d="M196,1056.3v19h-11v-19H196 M204,1048.3h-27v35h27V1048.3L204,1048.3z"/>
			</g>
		</g>
	</g>
	<g id="house1b">
		<g>
			<path class="st3" d="M1133,824.3v348h-115v-348H1133 M1141,816.3h-131v364h131V816.3L1141,816.3z"/>
		</g>
		<g>
			<g>
				<path class="st3" d="M1050,848.3v19h-11v-19H1050 M1058,840.3h-27v35h27V840.3L1058,840.3z"/>
			</g>
			<g>
				<path class="st3" d="M1111,848.3v19h-11v-19H1111 M1119,840.3h-27v35h27V840.3L1119,840.3z"/>
			</g>
		</g>
		<g>
			<g>
				<path class="st3" d="M1050,912.3v19h-11v-19H1050 M1058,904.3h-27v35h27V904.3L1058,904.3z"/>
			</g>
			<g>
				<path class="st3" d="M1111,912.3v19h-11v-19H1111 M1119,904.3h-27v35h27V904.3L1119,904.3z"/>
			</g>
		</g>
		<g>
			<g>
				<path class="st3" d="M1050,970.3v19h-11v-19H1050 M1058,962.3h-27v35h27V962.3L1058,962.3z"/>
			</g>
			<g>
				<path class="st3" d="M1111,970.3v19h-11v-19H1111 M1119,962.3h-27v35h27V962.3L1119,962.3z"/>
			</g>
		</g>
		<g>
			<g>
				<path class="st3" d="M1050,1034.3v19h-11v-19H1050 M1058,1026.3h-27v35h27V1026.3L1058,1026.3z"/>
			</g>
			<g>
				<path class="st3" d="M1111,1034.3v19h-11v-19H1111 M1119,1026.3h-27v35h27V1026.3L1119,1026.3z"/>
			</g>
		</g>
		<g>
			<g>
				<path class="st3" d="M1050,1098.3v19h-11v-19H1050 M1058,1090.3h-27v35h27V1090.3L1058,1090.3z"/>
			</g>
			<g>
				<path class="st3" d="M1111,1098.3v19h-11v-19H1111 M1119,1090.3h-27v35h27V1090.3L1119,1090.3z"/>
			</g>
		</g>
	</g>
	<g>
		<path class="st3" d="M690,781.3v357H575v-357H690 M698,773.3H567v373h131V773.3L698,773.3z"/>
	</g>
	<g>
		<g>
			<path class="st3" d="M607,805.3v19h-11v-19H607 M615,797.3h-27v35h27V797.3L615,797.3z"/>
		</g>
		<g>
			<path class="st3" d="M668,805.3v19h-11v-19H668 M676,797.3h-27v35h27V797.3L676,797.3z"/>
		</g>
	</g>
	<g>
		<g>
			<path class="st3" d="M607,869.3v19h-11v-19H607 M615,861.3h-27v35h27V861.3L615,861.3z"/>
		</g>
		<g>
			<path class="st3" d="M668,869.3v19h-11v-19H668 M676,861.3h-27v35h27V861.3L676,861.3z"/>
		</g>
	</g>
	<g>
		<g>
			<path class="st3" d="M607,929.3v19h-11v-19H607 M615,921.3h-27v35h27V921.3L615,921.3z"/>
		</g>
		<g>
			<path class="st3" d="M668,929.3v19h-11v-19H668 M676,921.3h-27v35h27V921.3L676,921.3z"/>
		</g>
	</g>
	<g>
		<g>
			<path class="st3" d="M607,991.3v19h-11v-19H607 M615,983.3h-27v35h27V983.3L615,983.3z"/>
		</g>
		<g>
			<path class="st3" d="M668,991.3v19h-11v-19H668 M676,983.3h-27v35h27V983.3L676,983.3z"/>
		</g>
	</g>
	<g>
		<g>
			<path class="st3" d="M608,1045.3v19h-11v-19H608 M616,1037.3h-27v35h27V1037.3L616,1037.3z"/>
		</g>
		<g>
			<path class="st3" d="M669,1045.3v19h-11v-19H669 M677,1037.3h-27v35h27V1037.3L677,1037.3z"/>
		</g>
	</g>
	<g>
		<g>
			<path class="st3" d="M607,1099.3v19h-11v-19H607 M615,1091.3h-27v35h27V1091.3L615,1091.3z"/>
		</g>
		<g>
			<path class="st3" d="M668,1099.3v19h-11v-19H668 M676,1091.3h-27v35h27V1091.3L676,1091.3z"/>
		</g>
	</g>
</g>
<g>
	<g id="build2b">
		<line class="st4" x1="199" y1="746.3" x2="277" y2="746.3"/>
		<line class="st4" x1="199" y1="767.3" x2="277" y2="767.3"/>
		<line class="st4" x1="226" y1="786.3" x2="277" y2="786.3"/>
		<line class="st4" x1="226" y1="807.3" x2="277" y2="807.3"/>
		<g>
			<line class="st4" x1="299" y1="1138.3" x2="299" y2="708.3"/>
			<line class="st4" x1="181" y1="708.3" x2="299" y2="708.3"/>
			<line class="st4" x1="181" y1="781.3" x2="181" y2="708.3"/>
		</g>
		<line class="st4" x1="226" y1="828.3" x2="277" y2="828.3"/>
		<line class="st4" x1="226" y1="849.3" x2="277" y2="849.3"/>
		<line class="st4" x1="226" y1="870.3" x2="277" y2="870.3"/>
		<line class="st4" x1="226" y1="891.3" x2="277" y2="891.3"/>
		<line class="st4" x1="226" y1="912.3" x2="277" y2="912.3"/>
		<line class="st4" x1="226" y1="933.3" x2="277" y2="933.3"/>
		<line class="st4" x1="226" y1="954.3" x2="277" y2="954.3"/>
		<line class="st4" x1="226" y1="975.3" x2="277" y2="975.3"/>
		<line class="st4" x1="226" y1="996.3" x2="277" y2="996.3"/>
		<line class="st4" x1="226" y1="1017.3" x2="277" y2="1017.3"/>
		<line class="st4" x1="226" y1="1038.3" x2="277" y2="1038.3"/>
		<line class="st4" x1="226" y1="1059.3" x2="277" y2="1059.3"/>
		<line class="st4" x1="226" y1="1080.3" x2="277" y2="1080.3"/>
		<line class="st4" x1="223" y1="1097.3" x2="274" y2="1097.3"/>
		<line class="st4" x1="224" y1="1118.3" x2="275" y2="1118.3"/>
	</g>
	<g id="build2a">
		<line class="st4" x1="1110" y1="742.3" x2="1188" y2="742.3"/>
		<line class="st4" x1="1110" y1="763.3" x2="1188" y2="763.3"/>
		<line class="st4" x1="1110" y1="782.3" x2="1188" y2="782.3"/>
		<line class="st4" x1="1110" y1="803.3" x2="1188" y2="803.3"/>
		<line class="st4" x1="1210" y1="1134.3" x2="1210" y2="704.3"/>
		<line class="st4" x1="1092" y1="704.3" x2="1210" y2="704.3"/>
		<line class="st4" x1="1092" y1="824.3" x2="1092" y2="704.3"/>
		<line class="st4" x1="1137" y1="824.3" x2="1188" y2="824.3"/>
		<line class="st4" x1="1137" y1="845.3" x2="1188" y2="845.3"/>
		<line class="st4" x1="1137" y1="866.3" x2="1188" y2="866.3"/>
		<line class="st4" x1="1137" y1="887.3" x2="1188" y2="887.3"/>
		<line class="st4" x1="1137" y1="908.3" x2="1188" y2="908.3"/>
		<line class="st4" x1="1137" y1="929.3" x2="1188" y2="929.3"/>
		<line class="st4" x1="1137" y1="950.3" x2="1188" y2="950.3"/>
		<line class="st4" x1="1137" y1="971.3" x2="1188" y2="971.3"/>
		<line class="st4" x1="1137" y1="992.3" x2="1188" y2="992.3"/>
		<line class="st4" x1="1137" y1="1013.3" x2="1188" y2="1013.3"/>
		<line class="st4" x1="1137" y1="1034.3" x2="1188" y2="1034.3"/>
		<line class="st4" x1="1137" y1="1055.3" x2="1188" y2="1055.3"/>
		<line class="st4" x1="1137" y1="1076.3" x2="1188" y2="1076.3"/>
		<line class="st4" x1="1134" y1="1093.3" x2="1185" y2="1093.3"/>
		<line class="st4" x1="1135" y1="1114.3" x2="1186" y2="1114.3"/>
	</g>
	<g id="build2c">
		<rect x="900" y="1001.3" class="st4" width="115" height="130"/>
		<line class="st4" x1="923" y1="1018.3" x2="924" y2="1125.3"/>
		<line class="st4" x1="946" y1="1034.3" x2="1015" y2="1034.3"/>
		<line class="st4" x1="946" y1="1059.3" x2="1015" y2="1059.3"/>
		<line class="st4" x1="946" y1="1083.3" x2="1015" y2="1082.3"/>
		<line class="st4" x1="947" y1="1106.3" x2="1016" y2="1106.3"/>
		<line class="st4" x1="947" y1="1131.3" x2="1016" y2="1131.3"/>
	</g>
	<g id="build2d">
		<rect x="447" y="879.3" class="st4" width="127" height="252"/>
		<line class="st4" x1="467" y1="896.3" x2="469" y2="1131.3"/>
		<line class="st4" x1="489" y1="896.3" x2="491" y2="1131.3"/>
		<line class="st4" x1="510" y1="896.3" x2="512" y2="1131.3"/>
		<line class="st4" x1="532" y1="896.3" x2="534" y2="1131.3"/>
		<line class="st4" x1="551" y1="895.3" x2="553" y2="1130.3"/>
		<line class="st4" x1="573" y1="895.3" x2="575" y2="1130.3"/>
	</g>
	<g>
		<g>
			<line class="st4" x1="505" y1="876.3" x2="505" y2="575.3"/>
			<rect x="372" y="495.3" class="st5" width="112" height="83"/>
			<line class="st4" x1="347" y1="578.3" x2="505" y2="578.3"/>
			<line class="st4" x1="352" y1="578.3" x2="355" y2="1166.3"/>
			<line class="st4" x1="372" y1="596.3" x2="372" y2="1134.3"/>
			<line class="st4" x1="390" y1="596.3" x2="490" y2="596.3"/>
			<line class="st4" x1="390" y1="619.3" x2="490" y2="619.3"/>
			<line class="st4" x1="390" y1="642.3" x2="490" y2="642.3"/>
			<line class="st4" x1="390" y1="665.3" x2="490" y2="665.3"/>
			<line class="st4" x1="390" y1="688.3" x2="490" y2="688.3"/>
			<line class="st4" x1="390" y1="711.3" x2="490" y2="711.3"/>
			<line class="st4" x1="390" y1="734.3" x2="490" y2="734.3"/>
			<line class="st4" x1="390" y1="757.3" x2="490" y2="757.3"/>
			<line class="st4" x1="390" y1="780.3" x2="490" y2="780.3"/>
			<line class="st4" x1="390" y1="803.3" x2="490" y2="803.3"/>
			<line class="st4" x1="390" y1="826.3" x2="490" y2="826.3"/>
			<line class="st4" x1="390" y1="849.3" x2="490" y2="849.3"/>
		</g>
		<line class="st4" x1="390" y1="872.3" x2="490" y2="872.3"/>
		<line class="st4" x1="392" y1="896.3" x2="447" y2="896.3"/>
		<line class="st4" x1="392" y1="919.3" x2="447" y2="919.3"/>
		<line class="st4" x1="392" y1="942.3" x2="447" y2="942.3"/>
		<line class="st4" x1="392" y1="965.3" x2="447" y2="965.3"/>
		<line class="st4" x1="392" y1="988.3" x2="447" y2="988.3"/>
		<line class="st4" x1="392" y1="1011.3" x2="448" y2="1011.3"/>
		<line class="st4" x1="392" y1="1034.3" x2="447" y2="1034.3"/>
		<line class="st4" x1="392" y1="1057.3" x2="448" y2="1057.3"/>
		<line class="st4" x1="392" y1="1080.3" x2="444" y2="1080.3"/>
		<line class="st4" x1="392" y1="1103.3" x2="444" y2="1103.3"/>
		<line class="st4" x1="392" y1="1126.3" x2="447" y2="1126.3"/>
		<line class="st4" x1="392" y1="1149.3" x2="492" y2="1149.3"/>
	</g>
	<g id="build2f">
		<rect x="840" y="690.3" class="st4" width="80" height="16"/>
		<rect x="840" y="725.3" class="st4" width="80" height="16"/>
		<rect x="840" y="760.3" class="st4" width="80" height="16"/>
		<rect x="840" y="795.3" class="st4" width="80" height="16"/>
		<rect x="841" y="830.3" class="st4" width="80" height="16"/>
		<rect x="841" y="865.3" class="st4" width="80" height="16"/>
		<rect x="841" y="900.3" class="st4" width="80" height="16"/>
		<rect x="841" y="935.3" class="st4" width="80" height="16"/>
		<g>
			<polygon class="st4" points="880,577.3 828,670.9 932,670.9 			"/>
			<line class="st4" x1="828" y1="671.3" x2="828" y2="1138.3"/>
			<line class="st4" x1="933" y1="671.3" x2="933" y2="1000.3"/>
		</g>
		<rect x="841" y="968.3" class="st4" width="80" height="16"/>
		<rect x="841" y="1001.3" class="st4" width="57" height="16"/>
		<rect x="841" y="1034.3" class="st4" width="58" height="16"/>
		<rect x="842" y="1065.3" class="st4" width="57" height="16"/>
		<rect x="842" y="1098.3" class="st4" width="58" height="16"/>
	</g>
	<g id="build2g">
		<rect x="747" y="912.3" class="st4" width="81" height="237"/>
		<rect x="761" y="930.3" class="st4" width="12" height="12"/>
		<rect x="784" y="930.3" class="st4" width="13" height="13"/>
		<rect x="808" y="930.3" class="st4" width="13" height="13"/>
		<rect x="761" y="955.3" class="st4" width="12" height="12"/>
		<rect x="784" y="955.3" class="st4" width="13" height="13"/>
		<rect x="808" y="955.3" class="st4" width="13" height="13"/>
		<rect x="761" y="980.3" class="st4" width="12" height="12"/>
		<rect x="784" y="980.3" class="st4" width="13" height="13"/>
		<rect x="808" y="980.3" class="st4" width="13" height="13"/>
		<rect x="761" y="1005.3" class="st4" width="12" height="12"/>
		<rect x="784" y="1005.3" class="st4" width="13" height="13"/>
		<rect x="808" y="1005.3" class="st4" width="13" height="13"/>
		<rect x="761" y="1030.3" class="st4" width="12" height="12"/>
		<rect x="784" y="1030.3" class="st4" width="13" height="13"/>
		<rect x="808" y="1030.3" class="st4" width="13" height="13"/>
		<rect x="761" y="1055.3" class="st4" width="12" height="12"/>
		<rect x="784" y="1055.3" class="st4" width="13" height="13"/>
		<rect x="808" y="1055.3" class="st4" width="13" height="13"/>
		<rect x="761" y="1080.3" class="st4" width="12" height="12"/>
		<rect x="784" y="1080.3" class="st4" width="13" height="13"/>
		<rect x="808" y="1080.3" class="st4" width="13" height="13"/>
		<rect x="761" y="1105.3" class="st4" width="12" height="12"/>
		<rect x="784" y="1105.3" class="st4" width="13" height="13"/>
		<rect x="808" y="1105.3" class="st4" width="13" height="13"/>
	</g>
	<g id="build2h">
		<rect x="14" y="912.3" class="st4" width="81" height="237"/>
		<rect x="28" y="930.3" class="st4" width="12" height="12"/>
		<rect x="51" y="930.3" class="st4" width="13" height="13"/>
		<rect x="75" y="930.3" class="st4" width="13" height="13"/>
		<rect x="28" y="955.3" class="st4" width="12" height="12"/>
		<rect x="51" y="955.3" class="st4" width="13" height="13"/>
		<rect x="75" y="955.3" class="st4" width="13" height="13"/>
		<rect x="28" y="980.3" class="st4" width="12" height="12"/>
		<rect x="51" y="980.3" class="st4" width="13" height="13"/>
		<rect x="75" y="980.3" class="st4" width="13" height="13"/>
		<rect x="28" y="1005.3" class="st4" width="12" height="12"/>
		<rect x="51" y="1005.3" class="st4" width="13" height="13"/>
		<rect x="75" y="1005.3" class="st4" width="13" height="13"/>
		<rect x="28" y="1030.3" class="st4" width="12" height="12"/>
		<rect x="51" y="1030.3" class="st4" width="13" height="13"/>
		<rect x="75" y="1030.3" class="st4" width="13" height="13"/>
		<rect x="28" y="1055.3" class="st4" width="12" height="12"/>
		<rect x="51" y="1055.3" class="st4" width="13" height="13"/>
		<rect x="75" y="1055.3" class="st4" width="13" height="13"/>
		<rect x="28" y="1080.3" class="st4" width="12" height="12"/>
		<rect x="51" y="1080.3" class="st4" width="13" height="13"/>
		<rect x="75" y="1080.3" class="st4" width="13" height="13"/>
		<rect x="28" y="1105.3" class="st4" width="12" height="12"/>
		<rect x="51" y="1105.3" class="st4" width="13" height="13"/>
		<rect x="75" y="1105.3" class="st4" width="13" height="13"/>
	</g>
</g>
<g id="background">
	<rect x="930" y="932.3" class="st3" width="51" height="68"/>
	<rect x="955" y="866.3" class="st3" width="60" height="135"/>
	<rect x="966" y="840.3" class="st3" width="9" height="32"/>
	<rect x="985" y="838.3" class="st3" width="9" height="32"/>
	<rect x="693" y="792.3" class="st3" width="54" height="346"/>
	<rect x="740" y="854.3" class="st3" width="50" height="58"/>
	<rect x="805" y="836.3" class="st3" width="23" height="72"/>
	<rect x="773" y="845.3" class="st3" width="12" height="12"/>
	<rect x="755" y="830.3" class="st3" width="3" height="27"/>
	<rect x="505" y="741.3" class="st3" width="65" height="137"/>
	<rect x="555" y="661.3" class="st3" width="86" height="115"/>
	<polygon class="st3" points="504.8,741.5 535.9,703.9 567,741.5 	"/>
	<rect x="299" y="891.3" class="st3" width="54" height="258"/>
	<rect x="34" y="849.7" class="st3" width="61" height="57.6"/>
	<rect x="106" y="749.5" class="st3" width="73" height="30.8"/>
	<path class="st3" d="M591.5,586.2L556,660.7c-2.3,4.9,1.2,10.6,6.7,10.6h70.9c5.4,0,9-5.7,6.7-10.6l-35.4-74.5
		C602.2,580.6,594.2,580.6,591.5,586.2z"/>
	<g>
		<path class="st3" d="M598.5,511.3c0.7,8.3,1.2,16.7,1.8,25l0.7,12.5l0.6,12.5c0.2,4.2,0.6,8.3,0.9,12.5c0.3,4.2,0.3,8.3,0,12.5
			s-0.7,8.3-1.3,12.5s-1.4,8.3-2.7,12.5h-0.9c-1.3-4.2-2.1-8.3-2.7-12.5c-0.6-4.2-1.1-8.3-1.3-12.5c-0.3-4.2-0.2-8.3,0-12.5
			c0.3-4.2,0.7-8.3,0.9-12.5l0.6-12.5l0.7-12.5c0.6-8.3,1.1-16.7,1.8-25H598.5z"/>
	</g>
	<rect x="45.2" y="839.3" class="st3" width="9.6" height="10.4"/>
	<rect x="106" y="731.3" class="st3" width="71.3" height="20.5"/>
</g>
</svg>
