<?xml version="1.0" encoding="utf-8"?>
<!-- Generator: Adobe Illustrator 21.1.0, SVG Export Plug-In . SVG Version: 6.00 Build 0)  -->
<svg version="1.1" id="Layer_1" xmlns="http://www.w3.org/2000/svg" xmlns:xlink="http://www.w3.org/1999/xlink" x="0px" y="0px"
	 viewBox="0 0 390 544" style="enable-background:new 0 0 390 544;" xml:space="preserve">
<style type="text/css">
	.st0{fill:#A6A6A6;}
	.st1{fill:#D9D9D9;}
	.st2{fill:#485059;}
	.st3{fill:none;stroke:#485059;stroke-miterlimit:10;}
	.st4{fill:none;stroke:#4D4D4D;stroke-width:2;stroke-miterlimit:10;}
	.st5{fill:#A0A0A0;}
	.st6{fill:#BCBCBC;}
	.st7{fill:none;stroke:#485059;stroke-width:0.25;stroke-miterlimit:10;}
</style>
<g id="Layer_14">
</g>
<g id="Layer_7">
	<g>
		<ellipse class="st0" cx="67.3" cy="281.7" rx="5.6" ry="5"/>
	</g>
	<g>
		<ellipse class="st0" cx="103.8" cy="282.4" rx="5.6" ry="5"/>
	</g>
	<g>
		<ellipse class="st0" cx="86.3" cy="309.1" rx="6.3" ry="11"/>
	</g>
</g>
<g id="face">
	<g>
		<path class="st1" d="M95,303.8H76.8c-5.3,0-9.5-3.8-9.5-8.5v-28.4c0-4.7,4.3-8.5,9.5-8.5H95c5.3,0,9.5,3.8,9.5,8.5v28.4
			C104.5,299.9,100.3,303.8,95,303.8z"/>
	</g>
</g>
<g id="hair">
	<g>
		<path class="st2" d="M97.8,266.6c-0.1-1.5-1.3-1.5-2.7-0.1c-1.4,1.5-3.2,4.8-4.1,7.4c0,0,0,0-4.1,0c-4.1,0-4.1,0-4.1,0
			c-4.1,0-9-0.6-10.8-1.5c-1.9-0.8-3.3-0.8-3.3,0c0,0.8-0.4,3.6-0.8,6.2c-0.5,2.6-1.4,4.8-2.1,4.8c-0.7,0-1.2-1.2-1.2-2.7
			c0-1.5-0.4-2.7-0.8-2.7c-0.4,0-1.4-0.6-2.1-1.5c-0.7-0.8-0.9-2.7-0.4-4.2c0.5-1.4,1.2-2.9,1.6-3.3c0.5-0.4,0.8-2.2,0.8-4.2
			s0.7-4.2,1.6-4.8c0.9-0.6,3.3-2.3,5.4-3.5c2.1-1.3,3.2-2.6,2.5-3c-0.7-0.4-0.7-1,0-1.5c0.7-0.5,2.2-1.2,3.3-1.5
			c1.1-0.4,3.9-0.8,6.3-1.2c2.3-0.4,6.6,0.1,9.6,0.8c3,0.8,6.7,2.3,8.3,3.3s4.2,3.3,5.8,5.1c1.5,1.8,2.9,4.2,2.9,5.3
			c0,1.2,0,3.5,0,5.3s0.4,3.6,0.8,4.2c0.4,0.5,0.8,1.5,0.8,2.4s-0.5,1.8-1.2,2.4c-0.7,0.5-1.4,1.5-1.6,2.4c-0.2,0.8-0.4,1.8-0.4,2.1
			s-0.5,0.8-1.2,1.2c-0.7,0.4-1.2-1-1.2-3c0-2-0.5-3.8-1.2-4.2c-0.7-0.4-1.9-1.2-2.7-2C100.3,274.1,97.9,268.1,97.8,266.6z"/>
	</g>
</g>
<g id="mustache">
	<g>
		<path class="st2" d="M78.2,291.2c2.6-2,5.7-2.5,7-1.2c1.3,1.4,0.3,4.1-2.3,6.1c-2.6,2-5.7,2.5-7,1.2
			C74.7,296,75.7,293.2,78.2,291.2z"/>
	</g>
	<g>
		<path class="st2" d="M86.2,290.2c1.3-1.4,4.5-0.9,7,1.1c2.6,2,3.6,4.7,2.4,6.1c-1.2,1.4-4.5,0.9-7-1.1
			C86,294.2,84.9,291.5,86.2,290.2z"/>
	</g>
</g>
<g id="nose">
	<g>
		<ellipse class="st0" cx="86.3" cy="284.5" rx="3.9" ry="7.8"/>
	</g>
</g>
<g id="Layer_18">
	<ellipse class="st2" cx="246.9" cy="422.6" rx="24.1" ry="12.9"/>
	<rect x="214.8" y="367.2" class="st0" width="6.6" height="67.6"/>
	<rect x="271.6" y="367.2" class="st0" width="6.6" height="67.6"/>
</g>
<g id="Layer_15">
	<rect x="203.9" y="455.3" class="st1" width="91.1" height="113.9"/>
	<rect x="154.3" y="430.2" class="st1" width="195.2" height="32.7"/>
</g>
<ellipse transform="matrix(0.9756 -0.2195 0.2195 0.9756 -60.8103 65.6079)" class="st0" cx="264.8" cy="306.5" rx="4.6" ry="6.1"/>
<ellipse class="st0" cx="227.1" cy="310.5" rx="4.6" ry="6.1"/>
<path class="st1" d="M249.9,353H242c-1.5-0.2-10.9-1.3-12-5.2c-0.1-0.5-0.2-1.3-0.2-1.3c-0.4-3.1,0.6-4.5,0.4-6.3
	c-0.1-1.1-0.7-2.7-2.7-4.4c-0.9-1.8-1.9-4.5-2.2-7.9c-0.3-3.8,0.6-6.5,1.1-8.8c0.8-3.6,1.4-8.9,0-16.2c-0.1-0.9-0.7-6.9,3.7-11.9
	c4.6-5.3,11.1-5.2,12-5.2h7.9c1-0.2,4.5-0.8,7.8,1.2c3.6,2.1,5.6,6.2,5.4,10.7c0.2,3.9,1,7,1.6,9c0.8,2.4,1.3,3.3,1.8,5.8
	c0.1,0.5,0.2,1.3,0.3,6.6c0.1,3.3,0.1,4.9,0,6c-0.2,2-0.4,4.1-1.6,6.3c-0.9,1.7-1.9,2.8-2.7,3.5c0.1,1.5,0.1,3.7,0,6.3
	c-0.1,3.6-0.2,5.4-0.7,6.6C260,352.3,252.3,352.9,249.9,353z"/>
<ellipse class="st0" cx="245.6" cy="315.9" rx="3.5" ry="8.7"/>
<ellipse class="st2" cx="235.8" cy="309.3" rx="1.5" ry="2.1"/>
<ellipse class="st2" cx="254.5" cy="309.3" rx="1.5" ry="2.1"/>
<line class="st3" x1="236.7" y1="329.1" x2="255.2" y2="329.1"/>
<line class="st4" x1="160.1" y1="320.8" x2="160.1" y2="320.8"/>
<line class="st3" x1="232.8" y1="302.2" x2="239" y2="302.2"/>
<line class="st3" x1="251.4" y1="302.2" x2="259.9" y2="302.2"/>
<path class="st2" d="M229.7,345.3l-5.8,1.2l-7,6.1l-3.9,4.1l-1.5,6.1v9.2h10.1v-9.2l0.8,59h48.7v-53.2v-4.3v-3.6v8.1h3.9h5.4v-7.1
	l-1.5-7.1l-1.5-5.1l-3.9-4.1l-7-3.1h-2.6c-1.6,1.2-3.2,2.4-4.7,3.5c-1.7,1.1-3.5,2.1-5.4,3.1c-2.5,1.2-4.8,2.3-7,3.1
	c-1.7-0.2-3.5-0.5-5.4-1c-3.7-1-6.9-2.6-9.3-4.1C231.2,346.4,230.5,345.7,229.7,345.3z"/>
<g id="legs">
	<path class="st0" d="M239.8,454.2c2.2-18.1-3.6-38.1-7.3-38.1c-3.6,0-6.3,17.9-6.7,20.4c-1.2,7.9-0.9,14.5-0.7,17.8
		c0.5,7.1,1.3,5.8,2.2,14.8c0.3,2.8,1,11.2,3,19.3c0.3,1.2,0.9,3.5,2.2,4.1c1.3,0.5,2.9-0.8,3.7-2.1c2.4-3.5,1-9.1,0.7-15.3
		C236.4,466,238.7,463,239.8,454.2z"/>
	<ellipse class="st2" cx="232.8" cy="448.7" rx="7.7" ry="28.5"/>
	<path class="st0" d="M251,453.1c-2.3-17.5,3.7-37,7.7-37c3.7,0,6.5,17.4,6.9,19.8c1.2,7.7,1,14.1,0.8,17.2c-0.2,2-0.3,3.3-0.5,4.4
		c-0.3,1.4-0.5,2.4-0.9,4.1c0,0-0.6,2.6-1.5,5.8c-0.9,3.5-1.6,6.5-1.9,10.3c-0.2,3.8,0.3,5.2-0.6,8.5c-0.5,1.5-1,3.5-2.3,3.9
		c-1.2,0.5-2.9-0.5-3.9-2c-1.9-3.2,0.5-6.8-0.1-14.9c-0.1-1.2-0.4-2.7-0.9-5.8C252.6,459.8,251.1,454.1,251,453.1z"/>
	<path class="st2" d="M230.1,486.6c4.6-0.8,8.4,0.7,8.5,0.2c0-0.1-0.1-0.2-0.5-0.5c0.4,0.4,1.2,1.4,1.6,3c0.3,1.5,0,2.7-0.2,3.2
		c-4.9,2.3-9.7,4.5-14.5,6.8c-2.2,0-4.3,0-6.6,0c-0.2-0.5-0.5-1-0.7-1.5l7.3-5.3c0.9-1.8,1.9-3.5,2.9-5.3
		C228.4,487,229.2,486.8,230.1,486.6z"/>
	<path class="st2" d="M371.4,684.9c4.6-0.8,8.4,0.7,8.5,0.2c0-0.1-0.1-0.2-0.5-0.5c0.4,0.4,1.2,1.4,1.6,3c0.3,1.5,0,2.7-0.2,3.2
		c-4.9,2.3-9.7,4.5-14.5,6.8c-2.2,0-4.3,0-6.6,0c-0.2-0.5-0.5-1-0.7-1.5l7.3-5.3c0.9-1.8,1.9-3.5,2.9-5.3
		C369.7,685.3,370.5,685.1,371.4,684.9z"/>
	<path class="st2" d="M261.4,484.4c-4.3-0.8-8,0.7-8.1,0.2c0-0.1,0.1-0.2,0.5-0.5c-0.4,0.4-1.2,1.4-1.5,3c-0.3,1.5,0,2.7,0.2,3.2
		c4.6,2.3,9.2,4.5,13.8,6.8c2,0,4.2,0,6.2,0c0.2-0.5,0.5-1,0.6-1.5l-6.9-5.3c-0.9-1.8-1.9-3.5-2.8-5.3
		C263,484.8,262.3,484.6,261.4,484.4z"/>
</g>
<g id="Layer_12">
	<g>
		<path class="st1" d="M77.9,518.9c-2.5,0-4.4,1.8-4.3,4.1c0.1,2.2,2.1,5.7,4.4,7.6c2.4,1.9,4.3,0.4,4.3-3.5v-1.1
			C82.4,522,80.4,518.9,77.9,518.9z"/>
	</g>
	<g>
		<path class="st1" d="M99,519.1c2.2,0,3.9,1.8,3.9,4.1c-0.1,2.2-1.9,5.7-3.9,7.6c-2.2,2-3.9,0.4-3.9-3.5v-1
			C95,522.3,96.8,519.1,99,519.1z"/>
	</g>
	<g>
		<path class="st2" d="M80.8,532.2c0-1-2.6-3.9-5.8-6.4c-3.2-2.5-8.9-3-12.6-1.1l-4,2.1c-3.8,1.9-6.9,4.3-6.9,5.3s3.6,1.8,7.9,1.8
			h13.5C77.2,534.1,80.8,533.2,80.8,532.2z"/>
	</g>
	<g>
		<path class="st2" d="M93.5,532.2c0-1,2.7-3.9,6.1-6.4l0,0c3.3-2.5,9.2-3.1,13-1.2l4.8,2.4c3.8,1.8,7,4.2,7,5.2s-3.6,1.8-7.9,1.8
			h-15.1C97,534.1,93.5,533.2,93.5,532.2z"/>
	</g>
</g>
<g id="pants">
	<g>
		<path class="st2" d="M68.4,418.8c-0.2-3.9,3.2-7.3,7.6-7.5l19.8-1.1c4.3-0.2,7.9,2.8,7.9,6.7v100.2c0,3.9-2.5,7.1-5.6,7.1
			c-3.1,0-5.7-3.2-5.9-7.1L88,439.2c-0.2-3.9-0.4-8.3-0.4-9.9c0-1.5-0.5-3.5-1-4.3c-0.5-0.8-1.1,1.6-1.2,5.5L82.9,517
			c-0.1,3.9-2.5,7.1-5.3,7.1s-5.2-3.2-5.3-7.1L68.4,418.8z"/>
	</g>
</g>
<g id="eyes_x2F_brow">
	<g>
		<ellipse class="st2" cx="77.6" cy="280.2" rx="5.6" ry="4.2"/>
	</g>
	<g>
		<path class="st3" d="M73.7,276c0.5-0.4,1.4-1,2.8-1.1c0.3,0,0.3,0,0.3,0c0.3,0,0.9,0,1.5-0.1c0,0,0,0,0.6,0.1
			c1.3,0.2,2.3,0.7,2.8,1.1"/>
	</g>
	<g>
		<path class="st3" d="M89.5,276c0.5-0.4,1.4-1,2.8-1.1c0.3,0,0.3,0,0.3,0c0.3,0,0.9,0,1.5-0.1c0,0,0,0,0.6,0.1
			c1.3,0.2,2.3,0.7,2.8,1.1"/>
	</g>
	<ellipse class="st1" cx="77.6" cy="280.2" rx="4.7" ry="3.5"/>
	<g>
		<path class="st2" d="M93.5,276c2.6-0.3,5.1,1.4,5.5,3.8s-1.4,4.5-3.9,4.7c-2.6,0.3-5.1-1.4-5.5-3.8
			C89.1,278.4,90.9,276.3,93.5,276z"/>
	</g>
	<path class="st1" d="M93.6,276.6c2.2-0.2,4.2,1.2,4.5,3.2s-1.1,3.8-3.3,4c-2.2,0.2-4.2-1.2-4.5-3.2S91.5,276.9,93.6,276.6z"/>
	<ellipse class="st2" cx="77.6" cy="280.2" rx="0.8" ry="0.7"/>
	<ellipse class="st2" cx="94.2" cy="280.2" rx="0.8" ry="0.7"/>
	<line class="st3" x1="82.8" y1="279.2" x2="89.9" y2="279.2"/>
</g>
<g id="Layer_11">
	<g>
		<path class="st1" d="M52.5,408.9c0,0,0.1,1.7,0.2,3.7c0.1,2.1,0.2,5.2,0.2,6.8c0,1.7,2.2,4.3,4.8,5.9c2.7,1.5,5,1.4,5.3-0.2
			c0.2-1.6-0.9-3.8-2.5-4.6c-1.5-0.9-2.9-2.5-2.9-3.5s1.1-2.3,2.5-2.7c1.4-0.4,1.3-1.8,0-3.2c-1.3-1.2-3.6-2.2-5-2.2
			C53.7,408.9,52.5,408.9,52.5,408.9"/>
	</g>
	<g>
		<path class="st1" d="M119.6,404.7c0,0-0.1,1.9-0.2,4.2c-0.1,2.4-0.2,5.8-0.2,7.8s-1.6,5-3.6,6.8s-3.8,1.6-3.9-0.2
			c-0.2-1.8,0.6-4.2,1.9-5.3c1.2-1.1,2.2-2.8,2.2-4.1s-0.8-2.5-1.9-3.2c-1-0.5-1-2.2,0-3.5c1-1.4,2.7-2.5,3.8-2.5
			C118.7,404.7,119.6,404.7,119.6,404.7"/>
	</g>
</g>
<g id="arms">
	<g>
		<path class="st5" d="M108.9,323.6c-0.2-3.9,0.4-8.7,1.2-10.7c0,0,0,0,2.4,0c0.7,0,1.5,0.4,2.4,0.7c0.4,0.2,1.2,0.5,2.4,1.4
			c0.9,0.6,0.9,0.6,0.9,0.6c1.2,1.3,2.3,5.5,2.3,9.4v77.4c0,3.9-1.6,7.1-3.6,7.1s-3.8-3.2-4-7.1L108.9,323.6z"/>
	</g>
	<g>
		<path class="st5" d="M61.5,319.4c0.2-3.9-2.1-4.7-4.9-1.8c-2.9,2.9-5.2,8.5-5.2,12.5v76.7c0,3.9,1.4,7.1,3.2,7.1s3.3-3.2,3.4-7.1
			L61.5,319.4z"/>
	</g>
</g>
<g id="torso">
	<g>
		<path class="st2" d="M76.1,310.8c2.2-1.5,4.5-1.1,5.2,1.1c0.6,2.2,1.9,3.9,2.8,3.9s3.2-0.8,5.2-2c2-1.2,3.6-2.4,3.6-2.8
			c0-0.5,0.9,2.2,1.9,6.1l2.6,9.7c1,3.8,2.6,10,3.4,13.8l7.2,33c0.9,3.8,1.6,10.1,1.9,14.1l0.9,20.6c0,3.9-3,8.5-6.9,10.3l-1.6,0.8
			c-3.9,1.7-10.5,3.2-14.6,3.2c-4.1,0-11.1,0-15.5,0h-2.4c-4.3,0-7.6-3.2-7.1-7.1l7.1-66.8c0.4-3.9,0.9-10.2,1.2-14.1l0.8-13.5
			C72,316.9,73.8,312.4,76.1,310.8z"/>
	</g>
	<g>
		<path class="st6" d="M78.8,308.2c0.6,0.5,0.8,4.2,0.4,8L75.3,350c-0.5,3.9-1,10.2-1.2,14.1l-1.5,26.3c-0.2,3.9-0.4,10.3-0.4,14.2
			v58.3c0,3.9-1.5,7.1-3.6,7.1s-3.9-3.2-4.3-7.1l-3.3-32c-0.4-3.9-0.7-10.3-0.7-14.2v-54c0-3.9,0-10.3,0-14.2v-29.1
			c0-3.9,2.9-7.8,6.3-8.5c3.5-0.8,7.3-1.9,8.7-2.5C76.8,307.8,78.1,307.7,78.8,308.2z"/>
	</g>
	<g>
		<path class="st6" d="M93.9,308.9c-0.7,0.5-0.9,4.2-0.4,8l4.2,33.7c0.5,3.9,1.1,10.2,1.3,14.1l1.6,26.3c0.2,3.9,0.5,10.3,0.5,14.2
			v58.3c0,3.9,1.8,7.1,3.9,7.1c2.2,0,4.2-3.2,4.6-7.1l3.5-31.9c0.4-3.9,0.8-10.3,0.8-14.2v-54c0-3.9,0-10.3,0-14.2V320
			c0-3.9-3.1-7.8-6.8-8.5s-8-1.9-9.4-2.5C96.4,308.5,94.6,308.5,93.9,308.9z"/>
	</g>
</g>
<g id="Layer_13">
	<polygon class="st5" points="79.8,306.7 74.4,308.3 69.7,311.7 73.3,318.8 69.9,328.3 76.4,343.3 80.5,306.7 	"/>
	<polygon class="st5" points="92.9,305.7 98.3,307.1 103.1,310.4 99.7,317.5 103.2,326.9 97.1,342 92.1,305.7 	"/>
</g>
<line class="st7" x1="240.2" y1="330.7" x2="252.2" y2="330.8"/>
</svg>
