<?xml version="1.0" encoding="utf-8"?>
<!-- Generator: Adobe Illustrator 21.1.0, SVG Export Plug-In . SVG Version: 6.00 Build 0)  -->
<svg version="1.1" id="Layer_1" xmlns="http://www.w3.org/2000/svg" xmlns:xlink="http://www.w3.org/1999/xlink" x="0px" y="0px"
	 viewBox="0 0 370 352" style="enable-background:new 0 0 370 352;" xml:space="preserve">
<style type="text/css">
	.st0{fill:#A6A6A6;stroke:#032A47;stroke-width:8;stroke-miterlimit:10;}
	.st1{fill:#485059;}
	.st2{fill:#FFFFFF;}
</style>
<title>Artboard 1</title>
<ellipse class="st0" cx="185.2" cy="176.5" rx="178.8" ry="170.2"/>
<path class="st1" d="M332.3,229c-11.2,0.3-48.3,2.7-82.1,30.2c-20.4,16.6-35.3,39-42.7,64.3c-0.4-34.1-22.6-64.3-55.4-75.7
	c-32.4-11.1-68.4-2.2-91.9,22.7c1.8-1.2,40.8-30,36.2-76.6c-3.2-32.4-26.2-60.2-58.7-70.9c33.9,15.4,73.8,9.3,99.8-14.8
	c34.2-31.7,25.6-77,25-79.7c-3.6,37,19.3,71.3,54.7,82.6c33.5,10.7,71.2-1.2,92.6-29.6C280,100,264.6,134,271.2,166.7
	C277.3,196.8,301.1,221,332.3,229z"/>
<path class="st2" d="M332.3,219.4c-11.2,0.3-48.3,2.7-82.1,30.2c-20.4,16.6-35.3,39-42.7,64.3c-0.4-34.1-22.6-64.3-55.4-75.7
	c-32.4-11.1-68.4-2.2-91.9,22.7c1.8-1.2,40.8-29.9,36.2-76.6c-3.2-32.4-26.2-60.2-58.7-70.9c33.9,15.4,73.8,9.3,99.8-14.8
	c34.2-31.7,25.6-77,25-79.7c-3.6,37,19.3,71.3,54.7,82.6c33.5,10.7,71.2-1.2,92.6-29.6c-29.8,18.5-45.2,52.5-38.5,85.2
	C277.3,187.3,301.1,211.5,332.3,219.4z"/>
<path class="st1" d="M155.4,283.4c-2-23.2-12-44.9-28.1-61.6c-14.7-14.9-33.6-25.1-54.1-29.2c27.7-2.3,51.3-21.2,59.1-47.3
	c7.6-25.6-1.3-53.3-22.4-69.6c1.1,1.3,26.1,29.7,63.9,23.4c26.4-4.5,47.8-23.8,55.1-49.5c-11,27.1-4.4,57.5,16.3,76.2
	c27.2,24.6,63.7,15.2,65.9,14.6c-30.2-0.6-57.1,19.1-64.8,47.2c-7.3,26.5,4.1,54.9,28.1,69.7c-21.9-29.6-63.7-35.8-93.3-13.9
	C167.9,253.1,158.7,267.3,155.4,283.4z"/>
<path class="st2" d="M163.6,239.6c-0.4-5.5-2.3-23.7-16-39.9c-8.1-9.7-18.9-16.7-31.1-20c16-0.7,29.6-12,34.2-28.3
	c4.5-16.1-0.4-33.4-12.7-44.8c0.6,0.8,15,19.6,36.7,16.7c15.1-2,27.6-13.7,31.9-29.8c-6.4,16.9-2.7,36.4,9.1,48.8
	c15.6,16.4,36.7,11.4,37.9,11.1c-17.4-1.2-33,10.5-37.5,28.1c-4.2,16.9,2.1,34.6,16,45c-9.4-14.4-25.7-21.4-40.8-17.7
	C177.5,212.1,166.7,224.1,163.6,239.6z"/>
<path class="st1" d="M177.3,216.5c-0.5-3.8-2.7-16.2-11.2-27.3c-7.4-9.6-15.4-12.7-18.5-13.7c8.8-0.5,15.8-8.2,17.4-19.4
	c1.6-10.9-2.3-23.1-9.7-30.7c0.4,0.6,9.5,13.4,21.4,11.4c8.3-1.4,14.6-9.4,16-20.4c-2.6,11.6,0.6,24.9,8,33.4
	c9.6,11.2,21,7.8,21.7,7.6c-9.8-0.9-17.7,7.2-19.2,19.2c-1.4,11.4,3.3,23.9,11.5,30.8c-6-9.8-15.5-14.6-23.7-12.1
	C183.4,197.7,178.1,205.9,177.3,216.5z"/>
<path class="st2" d="M179.2,203.7c-1.1-7.1-3.7-13.8-7.8-19.7c-5-7-10.3-9.3-12.3-10.1c5.8-0.2,10.2-5.6,11.1-13.6
	c0.9-7.8-1.8-16.5-6.8-22.1c0.3,0.4,6.4,9.7,14.2,8.5c5.4-0.9,9.4-6.5,10.1-14.4c-1.5,8.2,0.8,17.8,5.7,24
	c6.5,8.1,13.9,5.9,14.4,5.8c-6.4-0.8-11.5,4.9-12.3,13.4c-0.8,8.1,2.5,17.1,8,22.2c-4.1-7.1-10.4-10.7-15.7-9
	C182.9,190.4,179.5,196.2,179.2,203.7z"/>
<path class="st1" d="M180.7,194.5c-0.8-5.3-2.8-10.3-5.7-14.7c-3.6-5.2-7.4-7-8.8-7.6c4.1-0.1,7.2-4.1,7.7-10
	c0.5-5.9-1.3-11.8-5-16.4c0.2,0.3,4.6,7.3,10.1,6.4c3.8-0.6,6.6-4.8,7-10.6c-0.9,6.3,0.6,12.7,4.3,17.9c4.7,6.1,9.9,4.5,10.2,4.4
	c-4.5-0.6-8.1,3.5-8.6,9.9c-0.4,6,1.9,12.8,5.9,16.6c-3-5.3-7.4-8.1-11.2-6.8C183.2,184.6,180.9,188.9,180.7,194.5z"/>
</svg>
