<?xml version="1.0" encoding="utf-8"?>
<!-- Generator: Adobe Illustrator 21.1.0, SVG Export Plug-In . SVG Version: 6.00 Build 0)  -->
<svg version="1.1" id="Layer_1" xmlns="http://www.w3.org/2000/svg" xmlns:xlink="http://www.w3.org/1999/xlink" x="0px" y="0px"
	 viewBox="0 0 370 352" style="enable-background:new 0 0 370 352;" xml:space="preserve">
<style type="text/css">
	.st0{fill:#A6A6A6;stroke:#485059;stroke-width:8;stroke-miterlimit:10;}
	.st1{fill:#D9D9D9;stroke:#4F4F4F;stroke-miterlimit:10;}
	.st2{fill:#D9D9D9;stroke:#4F4F4F;stroke-width:5;stroke-miterlimit:10;}
	.st3{fill:#FFFFFF;}
	.st4{fill:none;stroke:#485059;stroke-width:4;stroke-miterlimit:10;}
</style>
<title>Artboard 1</title>
<ellipse class="st0" cx="185.2" cy="176.5" rx="178.8" ry="170.2"/>
<g id="Layer_3">
	<path class="st1" d="M80.4,257.3c-0.6-1.3-3.2-7.7-5.7-14.3s-4.5-20.8-4.5-31.5s3.3-27.9,7.3-38.1l3.4-8.8
		c4-10.2,13.4-25.2,20.8-33.3l6.9-7.6c9.2-9.6,19.3-18.2,30.2-25.8l5.7-3.8c9.1-6.1,24.1-14,33.1-17.6s18.6-6.9,21.1-7.5
		s9.3-1.4,15-1.8c7.4-0.5,14.9-0.5,22.4,0c7.8,0.7,15.6,1.8,23.3,3.6c8,2.1,15.8,5,23.3,8.4c6.6,3.2,14.6,8.2,17.7,11.2
		c3,2.8,5.7,6,7.9,9.5c1.7,3.4,3.2,6.9,4.6,10.5c1.3,3.5,2.4,12.7,2.4,20.4c-0.1,9.1-0.8,18.2-2,27.2c-1.3,8-3.3,15.9-6.1,23.5
		c-3.2,7.5-7,14.6-11.4,21.4c-5.3,7.8-11.1,15.3-17.2,22.5c-6.3,7-13.3,13.4-20.8,19.1c-5.9,4.3-17.4,11.7-25.5,16.6
		c-9.2,5.4-18.8,10-28.7,13.9c-9.3,3.2-18.8,5.5-28.6,6.9c-8,1-23,1-33.3-0.2s-23.5-3.8-29.2-5.9c-7.2-2.8-14.1-6.2-20.8-10
		C86.2,262.4,81.1,258.6,80.4,257.3z"/>
	<path class="st2" d="M80.4,257.3c-0.6-1.3-3.2-7.7-5.7-14.3s-4.5-20.8-4.5-31.5s3.3-27.9,7.3-38.1l3.4-8.8
		c4-10.2,13.4-25.2,20.8-33.3l6.9-7.6c9.2-9.6,19.3-18.2,30.2-25.8l5.7-3.8c9.1-6.1,24.1-14,33.1-17.6s18.6-6.9,21.1-7.5
		s9.3-1.4,15-1.8c7.4-0.5,14.9-0.5,22.4,0c7.8,0.7,15.6,1.8,23.3,3.6c8,2.1,15.8,5,23.3,8.4c6.6,3.2,14.6,8.2,17.7,11.2
		c3,2.8,5.7,6,7.9,9.5c1.7,3.4,3.2,6.9,4.6,10.5c1.3,3.5,2.4,12.7,2.4,20.4c-0.1,9.1-0.8,18.2-2,27.2c-1.3,8-3.3,15.9-6.1,23.5
		c-3.2,7.5-7,14.6-11.4,21.4c-5.3,7.8-11.1,15.3-17.2,22.5c-6.3,7-13.3,13.4-20.8,19.1c-5.9,4.3-17.4,11.7-25.5,16.6
		c-9.2,5.4-18.8,10-28.7,13.9c-9.3,3.2-18.8,5.5-28.6,6.9c-8,1-23,1-33.3-0.2s-23.5-3.8-29.2-5.9c-7.2-2.8-14.1-6.2-20.8-10
		C86.2,262.4,81.1,258.6,80.4,257.3z"/>
</g>
<g id="Layer_4">
	<path class="st3" d="M87.7,157.6c0.8-1.5,1.9-1.4,2.6,0.1l3.1,7.1c0.7,1.5,1.7,4,2.3,5.6l3.9,9.8c0.8,1.8,1.6,3.7,2.6,5.4l5.9,10.6
		c1,1.7,2.1,3.4,3.2,5l5.6,7.5c1,1.4,0.8,3.3-0.4,4.4l-14.6,13.2c-0.9,0.9-2.3,0.9-3.2,0c-0.2-0.2-0.3-0.4-0.5-0.6l-7.4-13.3
		c-0.8-1.4-2-3.9-2.6-5.4L77.7,182c-0.6-1.8-0.5-3.7,0.2-5.4L87.7,157.6z"/>
	<path class="st3" d="M216.1,69.4c-1.6,0-2.1,1-1,2.2l15.6,17.2c1.1,1.2,2.8,3.3,3.9,4.6l6.1,7.9c1,1.3,2.5,3.5,3.4,4.9l6.4,10.5
		c0.9,1.4,2.7,2,4.2,1.2l17.6-8.6c1.3-0.6,1.8-2.1,1.2-3.4c-0.1-0.1-0.1-0.3-0.2-0.4l-3.1-4.7c-0.9-1.4-2.5-3.6-3.4-4.9l-4.6-6.3
		c-1.2-1.6-2.5-3.1-3.9-4.6l-6.9-6.9l-4.2-4.2l-2.5-2.5c-1.4-1.3-3.2-2-5.1-2.1L216.1,69.4z"/>
</g>
<g id="Layer_6">
	<path class="st3" d="M112.4,161.8c-0.9,1.3-1.1,3.1-0.3,4.5l1.5,2.8c0.6,1.2,1.9,1.7,3.1,1.1c0.2-0.1,0.4-0.2,0.6-0.4l0.2-0.1
		c1.3-1.1,3.2-0.9,4.3,0.3l4.5,5c1.1,1.2,2.4,2.1,3,2s0.4-1.5-0.4-2.9l-4-7.7c-0.7-1.6-0.4-3.5,0.8-4.7l2.4-2.3
		c1.2-1.1,2.7-1.7,3.4-1.2c1.1,1,2.1,2,3,3.2l2.8,3.5c1,1.3,2.4,2,3.2,1.4s0.7-2.1,0-3.6l-3.7-7.2c-0.7-1.6-0.3-3.4,1-4.6l4.5-3.6
		c1.1-1,2.8-0.9,3.7,0.2c0.1,0.1,0.2,0.2,0.3,0.4l0.5,0.7c1.1,1.7,2.4,3.2,3.8,4.6l1.2,1.2c1.2,1.2,2.7,1.7,3.5,1.3s0.6-2-0.3-3.4
		l-5.1-7.8c-0.9-1.4-0.5-3.2,0.9-4.1l3.4-2.2c1.5-0.9,3.3-0.6,4.5,0.6l5.1,5.7c1.1,1.2,2.6,1.9,3.4,1.6s0.6-1.8-0.3-3.2l-4.9-7.5
		c-0.9-1.4-0.5-3.3,0.8-4.2l3.2-2.3c1.4-0.9,3.2-0.6,4.1,0.7l5.4,7.9c0.9,1.4,2.1,2.2,2.5,1.8s0.4-1.9-0.2-3.5l-3-7.9
		c-0.5-1.7,0-3.5,1.4-4.6l2.9-2.2c1.2-0.9,2.9-0.7,3.8,0.5c0.1,0.1,0.1,0.2,0.2,0.2l5.3,8.4c0.9,1.4,2.1,2.3,2.8,2s0.7-1.8,0.1-3.3
		l-1.5-3.9c-0.6-1.5-1.6-3.9-2.3-5.2c-0.6-1.4,0-3.1,1.5-3.8l4.9-2.6c1.5-0.8,3.4-0.4,4.5,0.9l5,6.2c1,1.3,2.3,2.1,2.7,1.8
		s0.2-1.7-0.5-3.2l-3.4-6.8c-0.7-1.4-0.1-3.1,1.3-3.8c0,0,0.1,0,0.1-0.1l4.3-1.9c1.6-0.7,3.5-0.2,4.6,1.1l4.7,6.1c1,1.3,2.4,2.2,3,2
		s0.6-1.5-0.2-3l-3.3-6.5c-0.8-1.5-0.5-3,0.7-3.5s1.4-2,0.6-3.5l-1.4-2.5c-0.8-1.4-2.4-2.2-3.5-1.6c-1.5,0.5-3.1,0.1-4.3-0.9
		l-2.6-2.2c-1.5-1.2-3.2-2.3-4.9-3.3c-1.4-0.7-3.1-0.9-3.7-0.3s-0.1,2,1,3.2l3.2,3.4c0.9,1,1.8,1.9,2.8,2.7c0.4,0.3-0.5,1.1-1.9,1.9
		l-3.1,1.6c-1.6,0.7-3.6,0.6-5.1-0.4l-1.2-0.9c-1.3-1-3.6-2.4-5-3.3l-1.6-1c-1.4-0.8-3.3-1-4.1-0.4s-0.5,2.1,0.8,3.1l1.8,1.5
		c1.3,1.1,3.1,2.6,4.1,3.4s0.6,2.1-0.9,2.8l-4,1.9c-1.6,0.7-3.4,0.6-4.9-0.3c-1.5-1.1-3-2.3-4.3-3.6l-2.2-2.2
		c-1.2-1.2-2.7-1.5-3.5-0.8s-0.6,2.4,0.4,3.8l2.9,3.9c1,1.4,0.8,3.3-0.5,4.4l-1.6,1.4c-1.2,1.1-3,1.2-4.3,0.1
		c-1.1-1-3.1-2.7-4.4-3.7l-1.7-1.3c-1.3-1-2.8-1.4-3.4-0.8s-0.2,2.1,0.7,3.5l3,4.2c0.9,1.3,1.5,3,1.2,3.6c-0.8,1.1-1.9,2-3.1,2.6
		l-0.8,0.5c-1.5,0.8-3.4,0.4-4.4-1l-3.9-5.3c-1-1.3-2.4-1.9-3.1-1.2s-0.9,2.5-0.4,4l0.1,0.4c0.7,1.9,1.5,3.7,2.5,5.4
		c0.8,1.5,0.5,3.3-0.8,4.4l-3.1,2.6c-0.9,0.9-2.4,0.8-3.3-0.1c-0.2-0.2-0.3-0.4-0.4-0.6l-3-5.8c-0.8-1.5-2.1-2.3-2.9-1.8
		s-1.1,2.1-0.6,3.7l2.8,8.2c0.5,1.7-0.2,3.4-1.6,4.4l-2,1.2c-1.4,0.9-3.2,0.4-4.1-1l-2.6-4.3c-0.9-1.4-2.2-2.4-2.9-2.2
		s-0.9,1.6-0.4,3.2l2.2,6.5c0.5,1.8,0.1,3.7-1,5.1l-2.8,3.2c-0.7,0.9-2.1,1.1-3,0.4c-0.2-0.2-0.4-0.4-0.6-0.7l-3.5-5.4
		c-0.9-1.4-2.2-2.2-2.8-1.8s-0.8,2-0.4,3.6l1.4,5c0.4,1.5,0.8,3,1,4.6C113.9,159.5,113.3,160.8,112.4,161.8z"/>
</g>
<g id="Layer_5">
	<path class="st4" d="M79.6,253.2c7.2-9.3,14.9-18.2,23-26.7c10.3-10.7,21.3-20.7,32.8-30.1c17.1-14.3,30.3-23.6,52.9-39.6
		c19-13.4,28.7-20.3,38.7-25.9c15.2-8.7,31.1-15.9,47.6-21.6c11.3-3.8,22.8-6.9,34.5-9.1"/>
</g>
</svg>
