<?xml version="1.0" encoding="utf-8"?>
<!-- Generator: Adobe Illustrator 21.1.0, SVG Export Plug-In . SVG Version: 6.00 Build 0)  -->
<svg version="1.1" xmlns="http://www.w3.org/2000/svg" xmlns:xlink="http://www.w3.org/1999/xlink" x="0px" y="0px"
	 viewBox="0 0 405 884" style="enable-background:new 0 0 405 884;" xml:space="preserve">
<style type="text/css">
	.st0{display:none;}
	.st1{display:inline;}
	.st2{fill:#9AFF39;}
	.st3{fill:none;stroke:#FFFFFF;stroke-width:12;stroke-miterlimit:10;}
	.st4{fill:#FFFFFF;stroke:#FFFFFF;stroke-width:12;stroke-miterlimit:10;}
	.st5{fill:none;stroke:#FFFFFF;stroke-width:14;stroke-miterlimit:10;}
	.st6{fill:#FFFFFF;stroke:#FFFFFF;stroke-miterlimit:10;}
	.st7{fill:none;stroke:#FFFFFF;stroke-width:6;stroke-miterlimit:10;}
</style>
<g id="Layer_1" class="st0">
	<g class="st1">
		<rect x="-37.5" y="0.5" class="st2" width="499" height="499"/>
		<path d="M461,1v498H-37V1H461 M462,0H-38v500h500V0L462,0z"/>
	</g>
</g>
<g id="Layer_4" class="st0">
	<g class="st1">
		<rect y="501" class="st2" width="404" height="766"/>
		<path d="M403.5,501.5v765H0.5v-765H403.5 M404.5,500.5h-405v767h405V500.5L404.5,500.5z"/>
	</g>
</g>
<g id="Layer_2" class="st0">
	<g id="T031wV.tif" class="st1">
		
			<image style="overflow:visible;" width="200" height="136" id="Layer_0" xlink:href="F01D879F3565D8C8.png"  transform="matrix(2.24 0 0 2.0662 -16 110)">
		</image>
	</g>
</g>
<g id="Layer_3">
	<rect x="161.6" y="192" class="st3" width="82.1" height="75.9"/>
	<rect x="127" y="166.4" class="st3" width="154.5" height="101.5"/>
	<ellipse class="st4" cx="200.6" cy="105.9" rx="113.8" ry="20.6"/>
	<path class="st3" d="M317.6,57.6c-22.8-4.3-34.2-6.4-56.3-7.9c-19.4-1.3-35-1.3-53.9-1c-56.2,1-84.8,1.6-111.8,7.9
		c-22.5,5.2-62.5,14.5-64.4,34.4c-0.1,1.1,0.5,6,2.8,11.2c0,0,2.6,5.9,7.7,10.4C68.9,137,98,142.2,98,142.2
		c84.4,11.7,132.9,9,206.7,2.9c0,0,23.2-1.9,49.9-18.7c15.4-9.7,20.1-17.2,20.9-24.6c1.1-10.3-5.5-19.2-8-22.6
		C358.6,67.3,347,63.1,317.6,57.6z"/>
	<line class="st3" x1="89.2" y1="59.2" x2="105.2" y2="94.3"/>
	<line class="st3" x1="161.6" y1="51.6" x2="167.2" y2="90.5"/>
	<line class="st3" x1="241.5" y1="49.1" x2="239.2" y2="95"/>
	<line class="st3" x1="323.3" y1="64" x2="292.7" y2="100"/>
	<line class="st3" x1="374.3" y1="94.8" x2="301.5" y2="109.5"/>
	<line class="st3" x1="281" y1="120.4" x2="309.2" y2="147"/>
	<line class="st3" x1="130.2" y1="121.8" x2="110.1" y2="138.9"/>
	<line class="st3" x1="44.5" y1="76.8" x2="92" y2="110.9"/>
	<path class="st3" d="M27.6,91c-8.1-0.3-12.5,99.8,0,132.8c3.2,8.4,7.9,14.2,7.9,14.2c5.8,7.3,12.2,10.4,24.4,15.2
		c23.7,9.1,35.8,13.7,52.8,14.2c8.7,0.3,15-0.6,18.1-0.9c44.7-5.4,93.5,4.4,165.5-0.9c0,0,21.1-1.6,48.9-14.2
		c7.3-3.3,17.1-8.4,25.2-19.9c0,0,4.6-6.5,7.9-15.2c13.8-36.4,5.9-120.8,0-120.5c-2.1,0.1-0.3,10.7-7.1,22.8
		c-5.9,10.5-15.2,16.6-33.9,22.8c-20.8,6.9-37.1,8.5-68.6,11.4c-26.4,2.4-39.6,3.6-41.8,3.8c-34.7,2.4-58,3.9-88.3,0.9
		c-27.5-2.7-44.4-7.6-50.4-9.5c-35.6-10.9-45.1-18.5-50.4-26.6C27.8,105.9,30.7,91.1,27.6,91z"/>
	<line class="st3" x1="83.9" y1="145.5" x2="82.3" y2="265.1"/>
	<line class="st3" x1="320" y1="139.8" x2="318.4" y2="259.4"/>
	<line class="st3" x1="44.8" y1="158.2" x2="83.6" y2="178.5"/>
	<line class="st3" x1="127" y1="185.4" x2="83.5" y2="174.9"/>
	<line class="st3" x1="44.1" y1="192" x2="83.5" y2="208.1"/>
	<line class="st3" x1="85.9" y1="211.9" x2="126.8" y2="219"/>
	<path class="st4" d="M48.1,141.7c-4-14.9-15.1-28.8-20.9-26.6c-6.5,2.6-5.8,25.2-4.8,55c0.1,2.7,0.5,15.2,3.2,31.3
		c1.4,8.2,3.2,16.5,7.2,25.6c2.7,6,6.1,13.7,9.7,13.3c4.4-0.6,6.5-13.5,7.2-18c2.9-17.7-1.1-24.4-1.6-46.5
		C47.6,154.8,51.1,152.8,48.1,141.7z"/>
	<path class="st4" d="M351.9,209.5c0.3,15.4,6.3,31.4,11.3,30.4c5.6-1.1,9.4-23.3,14.4-52.6c0.4-2.6,2.5-15,3.5-31.2
		c0.5-8.3,0.7-16.8-0.8-26.5c-1-6.4-2.2-14.7-5-15c-3.6-0.4-7.7,11.7-9.2,16c-5.7,16.7-3.8,24-7.7,45.7
		C354.8,196.9,351.7,198.1,351.9,209.5z"/>
	<line class="st3" x1="283.8" y1="184.4" x2="360.3" y2="162.6"/>
	<line class="st3" x1="286.2" y1="216.7" x2="353" y2="199.6"/>
	<line class="st5" x1="280.3" y1="257.7" x2="357.3" y2="242.1"/>
	<line class="st5" x1="44.3" y1="244" x2="129.2" y2="258.6"/>
	<line class="st3" x1="131.8" y1="258.4" x2="281.4" y2="257.5"/>
	<polygon class="st6" points="157.1,12.3 189.3,32.2 153.9,32.2 153.9,12.3 	"/>
	<polygon class="st6" points="205,8 237.2,27.9 201.8,27.9 201.8,8 	"/>
	<polygon class="st6" points="245.2,11.8 277.4,31.7 242,31.7 242,11.8 	"/>
	<line class="st7" x1="155.5" y1="12.3" x2="155.5" y2="49.3"/>
	<line class="st7" x1="203.4" y1="9.9" x2="203.4" y2="46.9"/>
	<line class="st7" x1="243.6" y1="13.7" x2="243.6" y2="50.7"/>
	<rect x="172" y="265.1" class="st6" width="61.1" height="1013.4"/>
</g>
</svg>
